<svg xmlns="http://www.w3.org/2000/svg" viewBox="0 0 499.1 499.1" xmlns:v="https://vecta.io/nano"><path d="M0 249.6c0 9.5 7.7 17.2 17.2 17.2h327.6l-63.9 63.8c-6.7 6.7-6.7 17.6 0 24.3 3.3 3.3 7.7 5 12.1 5s8.8-1.7 12.1-5l93.1-93.1c6.7-6.7 6.7-17.6 0-24.3l-93.1-93.1c-6.7-6.7-17.6-6.7-24.3 0s-6.7 17.6 0 24.3l63.8 63.8H17.2c-9.5 0-17.2 7.6-17.2 17.1zm396.4 244.6c56.7 0 102.7-46.1 102.7-102.8V107.7C499.1 51 453 4.9 396.4 4.9H112.7C56 4.9 10 51 10 107.7V166c0 9.5 7.7 17.1 17.1 17.1 9.5 0 17.2-7.7 17.2-17.1v-58.3c0-37.7 30.7-68.5 68.4-68.5h283.7c37.7 0 68.4 30.7 68.4 68.5v283.7c0 37.7-30.7 68.5-68.4 68.5H112.7c-37.7 0-68.4-30.7-68.4-68.5v-57.6c0-9.5-7.7-17.2-17.2-17.2S10 324.3 10 333.8v57.6c0 56.7 46.1 102.8 102.7 102.8h283.7z"/><path d="M96.225 491.735c-28.2-4.168-58.586-26.045-72.54-52.226-10.36-19.438-13.044-34.77-13.08-74.733-.03-32.373.314-35.577 4.352-40.7 5.37-6.825 16.8-7.64 22.826-1.627 3.5 3.5 4.055 8.508 4.9 44.236.964 40.236.974 40.3 7.764 54.1 8.185 16.627 21.548 29.103 37.605 35.1 11.173 4.18 15.823 4.3 166.775 4.3 152.002 0 155.53-.093 167.017-4.4 14.292-5.347 29.9-19.944 37.165-34.734l5.187-10.574.58-157.866c.57-154.9.5-158.084-3.77-169.498-8.84-23.627-29.434-39.643-56.34-43.818-9.968-1.547-62.688-2.08-160.587-1.624-139.5.65-146.193.858-156.155 4.867-15.454 6.218-31.14 21.548-38.276 37.4-5.736 12.748-6.028 14.978-6.957 53.243-.86 35.378-1.42 40.388-4.915 43.883-6.118 6.118-17.455 5.197-23.03-1.87-4.427-5.613-4.556-7.256-3.7-47.055.793-36.92 1.403-42.568 5.822-53.928C28.998 43.084 47.863 24.16 79.3 11.625L92 6.565l155.83-.615c171.972-.67 171.72-.685 196.42 12.48 13.38 7.13 31.578 24.287 39.312 37.062 2.72 4.5 7.088 14.35 9.7 21.9l4.768 13.746v157.555c0 146.6-.27 158.437-3.867 170.244-9.8 32.16-33.423 56.9-66.093 69.2-12.492 4.707-12.838 4.717-165.843 5.1-84.33.205-159.035-.47-166.014-1.502zm186.01-138.25c-10.192-10.192-8.235-13.66 28.646-50.788 18.6-18.735 33.837-34.74 33.837-35.568s-75.016-1.505-166.703-1.505H11.3l-4.415-4.758c-6.872-7.406-7.085-16.2-.552-22.734 4.158-4.158 7.05-4.23 171.3-4.23l167.072-1.506c0-.828-15.227-16.834-33.837-35.568-28.654-28.845-33.837-35.037-33.837-40.422 0-8.094 7.682-15.556 16.014-15.556 5.3 0 13.762 7.543 57.493 51.3 44.303 44.33 51.268 52.168 51.268 57.686 0 5.524-6.936 13.3-51.384 57.613-55.78 55.6-57.48 56.757-68.2 46.036z" fill="#ccc"/></svg>