<svg xmlns="http://www.w3.org/2000/svg" viewBox="0 0 489.9 489.9" xmlns:v="https://vecta.io/nano"><path d="M468.3 255.8l.2-.2c.3-.4.6-.7.8-1.1.1-.1.1-.2.2-.3.2-.4.5-.8.7-1.2 0-.1.1-.2.1-.2l.6-1.3c0-.1 0-.1.1-.2.2-.4.3-.9.5-1.4 0-.1 0-.2.1-.2.1-.5.3-.9.3-1.4 0-.2 0-.3.1-.5.1-.4.1-.8.2-1.2.1-.6.1-1.1.1-1.7s0-1.1-.1-1.7c0-.4-.1-.8-.2-1.2 0-.2 0-.3-.1-.5l-.3-1.4c0-.1 0-.2-.1-.2-.1-.5-.3-.9-.5-1.4 0-.1 0-.1-.1-.2l-.6-1.3c0-.1-.1-.2-.1-.2-.2-.4-.4-.8-.7-1.2-.1-.1-.1-.2-.2-.3-.3-.4-.5-.8-.8-1.1l-.2-.2c-.4-.4-.7-.9-1.2-1.3l-98.9-98.8c-6.7-6.7-17.6-6.7-24.3 0s-6.7 17.6 0 24.3l69.6 69.6H136.8c-9.5 0-17.2 7.7-17.2 17.1 0 9.5 7.7 17.2 17.2 17.2h276.8l-69.1 69.1c-6.7 6.7-6.7 17.6 0 24.3 3.3 3.3 7.7 5 12.1 5s8.8-1.7 12.1-5l98.3-98.3c.5-.6.9-1 1.3-1.4zM110.7 34.3h128c9.5 0 17.2-7.7 17.2-17.1 0-9.5-7.7-17.2-17.2-17.2h-128C59.4 0 17.6 41.8 17.6 93.1v303.7c0 51.3 41.8 93.1 93.1 93.1h125.9c9.5 0 17.2-7.7 17.2-17.1 0-9.5-7.7-17.2-17.2-17.2H110.7c-32.4 0-58.8-26.4-58.8-58.8V93.1c.1-32.5 26.4-58.8 58.8-58.8z"/><g fill="#ccc"><path d="M87.236 485.742c-31.243-8.396-57.13-34.645-65.37-66.286-4.77-18.312-4.77-330.285 0-348.597C30.34 38.317 55.677 12.724 87.913 4.14 95.994 1.99 116.4 1.29 171.546 1.27c66.44-.022 73.334.3 77.32 3.608 6.615 5.492 7.684 15.015 2.434 21.69l-4.354 5.535-74.17.756c-80.707.822-81.062.87-98.65 13.295-6.49 4.584-11.13 10.35-15.717 19.533l-6.51 13.03.046 166.255c.045 162.65.137 166.458 4.265 175.597 5.135 11.367 16.69 23.708 27.865 29.757 7.967 4.313 11.36 4.537 83.736 5.533l75.432 1.038 5.007 5.824c2.754 3.203 5.007 7.13 5.007 8.725 0 5.64-4.673 13.046-9.668 15.322-8.193 3.733-141.906 2.858-156.35-1.023z"/><path d="M124.44 487.26l-36.437-1.303-15.614-7.718c-19.414-9.596-34.762-25.223-43.852-44.646l-6.55-13.996-1.494-52.967c-1.913-67.847-1.9-175.197.007-243.224l1.5-53.25 7.547-15.27c9.503-19.23 25.115-35.098 43.105-43.817 13.4-6.5 13.765-6.55 57.086-8.007 23.976-.807 59.86-.926 79.74-.263 31.307 1.044 36.658 1.715 39.96 5.017 5.104 5.104 4.856 14.68-.508 19.534-3.982 3.604-9.705 4-73.174 5.2l-77.5 2.34c-16.428 1.968-33.17 15.044-42.383 33.103-4.022 7.883-4.104 12.038-3.534 178.765.655 191.357-.66 175.676 16.153 192.5 15.868 15.868 9.78 14.94 116.725 17.8l57.563 1.534 6.27 6.9c6.252 6.87 8.13 10.47 4.193 8.038-1.142-.706-2.076.01-2.076 1.6s-2.102 4.814-4.67 7.184c-4.307 3.974-7.82 4.386-45.15 5.297-22.263.543-56.876.402-76.916-.315zM351.56 358.3c-2.447-.977-5.95-3.92-7.784-6.54-7.12-10.166-5.28-13.038 33-51.526 19.98-20.092 36.327-37.2 36.327-38.015s-63.563-1.484-141.252-1.484H130.6l-5.095-5.095c-6.227-6.227-6.5-13.317-.793-20.573l4.302-5.47H271.05l142.045-1.484c0-.816-16.347-17.923-36.327-38.015-33.614-33.803-36.327-37.092-36.327-44.034 0-5.633 1.363-8.575 5.47-11.805 11.362-8.937 12.2-8.343 70.774 50.232 46.595 46.595 54.535 55.423 54.535 60.637s-7.786 13.874-53.453 59.452c-29.4 29.342-55.32 53.832-57.605 54.42s-6.154.273-8.6-.704z"/></g></svg>