<svg xmlns="http://www.w3.org/2000/svg" viewBox="0 0 489.428 489.428" xmlns:v="https://vecta.io/nano"><path d="M244.674 318.414c12.5-.2 24.2-1.9 34.9-5.1 11.3 22.7 45.3 57 145.5 82.2 29.4 7.5 31.2 44.5 29.7 65.9-.7 9.4 6.5 17.6 15.9 18.3h1.2c8.9 0 16.5-6.9 17.1-15.9 3.8-54.6-16.4-91.6-55.6-101.6-91.5-23-116.2-51.5-122.8-64 6.4-4.6 12.4-9.9 17.8-16.1 45.6-51.4 38.2-139.2 37.3-147.9-5.3-114-94.6-124.1-121.9-124.5h-2c-56.3.6-117.8 33.7-122.2 124.5-.9 8.7-8.3 96.5 37.3 147.9 6.2 7 13.2 13.1 20.7 18.1-8.1 13-34.9 40.3-121.6 62-39.1 9.9-59.4 47-55.5 101.5.6 9 8.2 15.9 17.1 15.9h1.2c9.4-.7 16.6-8.9 15.9-18.3-1.5-21.4.4-58.4 29.7-65.9 97.4-24.4 132.5-57.7 144.8-81.2 9.8 2.6 20.3 4 31.5 4.2h4zm-2.5-34.3c-25.5-.3-45-8.4-59.6-24.7-36.9-41.5-28.9-121.3-28.9-122.1 0-.4.1-.7.1-1.1 3.6-79.4 56.9-91.9 88.4-92.2h1.1c31.4.4 84.7 13 88.3 92.2 0 .3 0 .7.1 1 .1.8 8.1 80.6-28.9 122.1-14.6 16.4-34 24.4-59.6 24.7h-1v.1z"/><path d="M6.814 473.563c-5.487-5.984-6.767-16.974-4.467-38.34 2.767-25.705 8.437-38.65 23.55-53.777 11.273-11.282 14.6-13.324 28.178-17.302 38.554-11.293 56.265-17.567 75.538-26.76 21.43-10.222 39.884-23.268 45.9-32.45 3.323-5.07 3.265-5.396-1.522-8.614-19.12-12.852-38.074-43.866-46.973-76.858-5.012-18.582-5.448-23.504-5.548-62.68-.1-35.037.555-44.885 3.666-55.994 6.733-24.04 15.365-39.27 31.245-55.13 23.74-23.708 49.932-34.047 86.256-34.047 48.315 0 88.017 22.518 106.558 60.436 13.024 26.636 14.78 36.798 14.63 84.733-.12 39.136-.563 44.116-5.57 62.68-7.536 27.942-19.887 50.817-36.3 67.23l-13.29 13.29 12.268 12.004c18.665 18.264 59.67 37.53 104.72 49.204 17.99 4.662 30.483 11.553 40.348 22.255 15.404 16.71 21.294 34.515 21.623 65.36.186 17.428-.257 19.806-4.543 24.368-6.187 6.585-16.26 6.763-22.083.39-3.456-3.783-4.478-8.397-5.394-24.368-1.445-25.174-4.117-33.85-13.53-43.92-6.8-7.276-10.284-8.893-32.874-15.258-60.048-16.92-100.735-39.147-121.44-66.343-5.27-6.923-9.038-10.04-11.453-9.48-1.98.46-18.26.97-36.182 1.134l-32.583.297-6.145 8.483c-18.484 25.517-60.8 48.462-121.645 65.945-21.956 6.3-25.67 8.056-32.405 15.244-9.4 10.042-12.084 18.718-13.53 43.898-1.303 22.714-4.828 29.034-16.193 29.034-4.127 0-8.112-1.72-10.814-4.666zm253.508-190.46c35.108-6.5 56.542-30.48 67.675-75.75 5.862-23.835 6.424-74.825 1.067-96.758-8.008-32.783-24.414-52.09-52.463-61.742-44.596-15.343-93.206.864-111.628 37.218-18.65 36.806-16.918 111.535 3.557 153.354 17.154 35.035 51.117 51.195 91.793 43.676z" fill="#ccc"/></svg>