<svg xmlns="http://www.w3.org/2000/svg" width="793.701" height="1122.52" viewBox="0 0 210 297" fill="#ccc" xmlns:v="https://vecta.io/nano"><path d="M115.646 67.2c-2.006 2.036-4.078 3.993-6.337 5.746-1.955 1.618-4.102 2.964-6.225 4.346l-6.72 4.566c-.864.587-1.632 1.322-2.54 1.85L83.4 89.69l-.895.5 8.63-4.96c-4.743 3.177-9.865 5.735-14.774 8.634 16.647-9.965 7.812-4.45 4.106-1.974-4.986 3.962-10.71 6.795-16.2 9.972 16.41-9.323 7.32-4.494 3.827-1.867-1.585 1.16-3.114 2.393-4.69 3.566-1.805 1.41-3.576 2.872-5.258 4.428-1.495 1.45-2.982 2.91-4.32 4.506-1.314 1.822-2.138 3.943-3.135 5.948-1.1 1.984-1.756 4.144-2.462 6.282-.587 1.674-.79 3.424-.887 5.184-.167 1.82-.044 3.51.908 5.098 1.22 1.38 2.893 2.213 4.6 2.852 2.022.905 4.206 1.297 6.344 1.823 1.884.272 3.715.786 5.594 1.085 1.645.23 3.31.243 4.966.258l5.543.003c2.04.03 4.018.114 5.983-.488 2.35-.75 4.74-1.356 7.086-2.12 2.948-.702 5.75-1.786 8.58-2.844 2.388-.78 4.837-1.4 7.316-1.82 2-.265 4.02-.293 6.034-.307 2.183-.066 4.346-.42 6.53-.56 2.424-.126 4.852-.16 7.28-.174l6.036-.01 5.646.003c1.853-.078 3.66-.016 5.434.545 1.912.72 2.962 2.205 3.7 4.028a31.35 31.35 0 0 1 1.2 5.648c.183 1.962.27 3.935.146 5.902-.42 2.41-1.56 4.588-2.63 6.76-.827 1.915-1.93 3.655-3.223 5.283-1.376 1.8-2.893 3.465-4.292 5.236-1.086 2-2.373 3.802-3.96 5.433-1.972 1.754-3.832 3.63-5.83 5.356-3.827 2.937-8.383 5.075-12.484 7.395-.326.184-.67.33-1 .5-.318.173-1.256.724-.94.544l8.607-4.938c-5.154 3.22-10.394 6.342-15.854 9.017-1.718.98-3.577 1.668-5.405 2.412-.293.147-.592.283-.88.44-5.32 2.927 12.077-7.072 6.936-3.9l-.917.552-10.56 5.934c-2.525.828-4.74 2.304-7.138 3.402-.397.196-.803.375-1.192.587-6.144 3.356 12-6.944 5.687-3.215l-1.366.8-10.76 6.142c-4.536 2.677 1.535-.914 6.88-3.915.43-.24-.83.532-1.248.8l-4.327 2.6c-2.76 1.6-5.34 3.478-7.89 5.395-1.678 1.243-3.455 2.393-4.637 4.146-.76 1.766-1.825 3.362-2.764 5.03l-.35.745-10.144 4.666.32-.835c.852-1.722 2.09-3.223 2.762-5.04.903-2.092 2.708-3.355 4.53-4.637 2.616-1.875 5.115-3.915 7.923-5.51l17.54-10.355-8.127 4.73c-.453.264.91-.522 1.36-.788l1.307-.78c4.32-2.514 8.612-5.263 13.14-7.46 2.365-1.207 4.707-2.448 7.184-3.42l-8.518 4.978c-.59.346 1.18-.695 1.77-1.04 3.954-2.318 7.94-5.072 12.23-6.942 1.806-.742 3.603-1.506 5.314-2.452l2.15-1.126 1.11-.593c-15.263 8.978-9.705 5.744-6.445 3.66l10.417-6.066c.635-.367 2.58-1.395 1.95-1.02l-8.477 4.945c-.682.398 2.722-1.55 2.018-1.243 2.067-1.642 3.867-3.565 5.872-5.28 1.648-1.508 3.087-3.182 4.003-5.243 1.253-1.885 2.95-3.43 4.243-5.293 1.334-1.544 2.558-3.17 3.346-5.07 1.082-2.047 2.137-4.13 2.794-6.358.198-1.894.056-3.806-.06-5.704-.195-1.828-.55-3.62-1.077-5.382-.584-1.554-1.482-2.693-3.156-3.135-1.732-.37-3.48-.355-5.247-.32-1.883.006-3.765-.004-5.648-.003l-6-.003c-2.41.023-4.82.037-7.224.228-2.2.192-4.394.54-6.607.53-1.975.034-3.958.096-5.907.445-2.418.47-4.816 1.084-7.132 1.93-2.843 1.088-5.742 1.968-8.66 2.827l-7.114 2.052c-2.052.39-4.11.334-6.194.314a382.57 382.57 0 0 1-5.567-.009c-1.698-.036-3.402-.077-5.075-.4L50.02 146c-2.163-.562-4.36-1.02-6.4-1.967-1.892-.81-3.772-1.748-5.024-3.443-1.022-1.77-1.423-3.62-1.216-5.665.076-1.847.182-3.7.78-5.466.717-2.18 1.38-4.396 2.416-6.45 1.068-2.02 1.928-4.133 3.003-6.148 1.32-1.652 2.77-3.175 4.29-4.646 1.65-1.608 3.43-3.067 5.202-4.537l4.692-3.547c4.58-3.767 10.263-5.844 15.107-9.233 3.454-1.976 4.913-2.814-7.104 4.135-.393.227.787-.45 1.17-.696 1.125-.72 2.18-1.545 3.222-2.38 4.657-3.463 10.076-5.892 14.867-9.092 3.43-1.868 8.72-4.867-6.803 4.055-.286.164.545-.37.823-.55 1.6-1.024.12-.004 1.717-1.135L91.18 83.2c.298-.172 1.202-.668.906-.495l-8.65 5.027c-.277.162.57-.298.842-.47.712-.447 1.106-.795 1.768-1.324 2.198-1.625 4.586-2.958 6.757-4.62 2.07-1.423 4.28-2.64 6.206-4.268 2.268-1.68 4.442-3.47 6.33-5.58l10.31-4.27z"/><path d="M105.693 74.918c2.326-1.48 4.318-3.388 5.8-5.7.67-1.334.38-.67.883-2l10.072-4.714c-.468 1.47-.194.73-.834 2.218-1.357 2.433-3.224 4.477-5.495 6.104l-10.437 4.084zM99.497 181.6c-.073 2.527.633 4.942 1.3 7.352.582 1.96.783 4 .902 6.023l.05 5.705-.005 5.62.004 5.5.06 4.977.177.58-9.815 5.38-.253-.796c-.2-1.683-.102-3.38-.12-5.074l.007-5.497.015-5.627-.035-5.65c-.073-1.968-.226-3.936-.737-5.848-.63-2.493-1.332-4.966-1.544-7.54l10.006-5.098z"/><path d="M117.435 198.486l-4.845 5.788c-1.082 1.48-1.616 3.15-1.666 4.97.28 1.954 1.45 3.67 2.606 5.224 1.13 1.422 2.292 2.935 4.26 2.815 3.405-1.64 8.285-4.155-7.668 4.368-.243.13.415-.366.587-.58.48-.597.55-.907.84-1.6.478-1.728.74-3.5 1.15-5.255.544-1.598 1.38-3.1 2.16-4.587 5.937-10.088 9.857-8.586 11.594-3.25.63 1.558 1.3 3.1 1.794 4.7.706 1.8.977 3.68 1.34 5.552l-9.828 5.258c-.387-1.833-.567-3.713-1.303-5.46-.467-1.596-1.144-3.126-1.804-4.65-.142-.394-.248-.8-.4-1.192-.042-.107-.083-.222-.163-.305-.022-.023-.1.07-.08.053 9.508-5.513 12.47-7.527 9.095-5.246-.942 1.33-1.506 2.906-2.323 4.312-.533 1.742-.763 3.56-1.14 5.34-.193.66-.354 1.324-.666 1.944-2.148 4.266-7.604 6.893-12.302 7.078-2.083-.506-3.45-1.95-4.7-3.635-1.27-1.763-2.562-3.63-2.98-5.8-.104-2.006.317-3.924 1.412-5.634 1.42-2.055 3.096-3.896 4.712-5.795l10.32-4.4zm22.12-6.963l-.042 6.8.01 6.12c-.077 1.872.05 3.715.313 5.566.144 1.922.558 3.802.838 5.705.183 1.205.235 2.422.323 3.635l-9.937 5.124-.24-3.56-.85-5.7c-.263-1.9-.5-3.786-.372-5.7l.01-6.13-.042-6.768 10-5.1z"/><path d="M132.857 209.5a23.86 23.86 0 0 0 4.299-5.27l3.2-5.564 3.547-5.13c1.386-1.785 3.14-3.244 4.47-5.07l10.2-4.5c-1.1 2.018-2.97 3.424-4.423 5.2-1.333 1.596-2.466 3.315-3.605 5.05-1.186 1.777-2.368 3.525-3.24 5.488-1.084 2.033-2.44 3.886-4.085 5.505l-10.357 4.3zm14.493-6.447c1.78 2.2 3.117 4.7 4.7 7.017 1.327 1.753 2.288 3.63 3.003 5.693.47 1.164.192.605.838 1.677l-9.628 5.587c-.754-1.235-.438-.607-.965-1.877-.684-1.97-1.537-3.793-2.8-5.483-1.52-2.286-2.774-4.8-4.726-6.758l9.558-5.857z"/><path d="M154.36 210.03c-1.137-2.355-1.85-2.976-4.433-3.106l-1.066.14c-.716.154-1.378.428-2.02.77-.32.17-1.246.743-.93.565 8.835-4.975 11.158-7.18 7.986-4.295-.15.23-.346.437-.45.69-.523 1.272.6 3.625 1.068 4.824.885 1.97 2.404 3.49 4.264 4.54l5.395 2.48c1.77.858 3.682 1.232 5.622 1.416.7.04.902.11 1.582-.068.25-.065.952-.4.727-.272-9.735 5.55-11.423 6.994-8.134 4.32l10.286-4.284c-3.13 4.073-8.406 7.41-13.572 6.756-2.016-.302-3.98-.83-5.8-1.752-1.802-.875-3.65-1.655-5.436-2.56-1.97-1.286-3.653-2.98-4.63-5.152-.606-1.508-1.736-4.006-1.516-5.63.046-.34.23-.647.345-.97 2.88-4.14.46-.916 10.94-7.003 1.334-.775 2.9-1.026 4.42-.938 2.696.483 3.8 1.63 5.112 3.982l-9.747 5.55z"/><path d="M174.988 196.883c-.78 2.102-.727 4.394-.753 6.606-.047 2.176.336 4.33.574 6.487.19 1.7.722 3.305 1.328 4.9.716 1.794.955 3.694 1.104 5.604l-9.9 5.13c-.105-1.803-.288-3.608-.947-5.307-.663-1.684-1.25-3.353-1.46-5.168-.202-2.207-.606-4.404-.575-6.623.013-2.283-.07-4.627.473-6.857l10.16-4.77z"/><path d="M167.404 215.012c.27-2.28.704-4.457 1.664-6.55a17.46 17.46 0 0 1 3.994-4.97c3.9-2.27 9.415-7.657 14.86-6.143 2.053.744 3.388 2.276 4.545 4.05 1.085 1.597 1.815 3.34 1.983 5.263-.025 1.272.024.635-.15 1.913l-10.03 4.882c.266-1.104.18-.544.26-1.68.008-1.744-.723-3.32-1.676-4.756-1-1.55-2.2-2.856-4.1-3.288-1.142-.122-2.233-.015-3.316.405-.273.106-1.046.53-.794.38l8.77-5.144c-1.764 1.134-3.1 2.77-4.23 4.515-1.082 1.937-1.674 3.96-1.704 6.194l-10.087 4.93zM47.74 139.92c-1.333-1.9-2.628-3.808-3.458-5.994-.823-1.942-1.24-3.98-1.475-6.065-.177-2.227.505-4.248 1.38-6.253.846-2.078 2.107-3.928 3.336-5.8 1.032-1.7 2.453-3.052 3.918-4.368 4.575-3.685 9.982-6.184 15.202-8.844 2.228-1.043 4.473-2.042 6.78-2.895 2.452-.648 4.545-2.093 6.82-3.142l.893-.465c.627-.327 2.466-1.384 1.852-1.033-15.063 8.602-10.104 6-6.85 3.737 1.58-1.08 3.218-2.064 4.74-3.23l4.98-3.7c4.012-2.547 8.227-4.805 12.335-7.16l.903-.513c-9.033 5.197-11.432 6.768-7.797 4.42 1.65-1.236 3.365-2.382 5.046-3.575 1.76-1.304 3.633-2.433 5.48-3.606 1.72-1.296 3.623-2.306 5.425-3.477 1.956-1.25 3.768-2.7 5.505-4.225 1.8-1.6 3.422-3.38 4.707-5.4l.494-.972 10.112-4.604-.467 1.072c-1.186 2.166-2.766 4.057-4.588 5.727-1.7 1.567-3.434 3.1-5.395 4.34-1.764 1.275-3.74 2.182-5.462 3.517-1.805 1.22-3.7 2.273-5.475 3.544-1.65 1.236-3.408 2.316-5.02 3.6-4.063 2.94-.718.56-11.225 6.642-.3.173-1.205.673-.907.5l8.582-4.982c.633-.365-2.477 1.5-1.894 1.102-1.747 1.1-3.258 2.5-5 3.622-1.484 1.244-3.077 2.295-4.717 3.318-.593.4-1.132.86-1.74 1.223-4.338 2.592-8.66 5.312-13.215 7.537-2.235 1.13-4.442 2.314-6.852 3.048a95.21 95.21 0 0 0-6.717 2.981c-3.607 1.756-8.77 4.94 6.338-3.894.863-.505-1.086.584-1.806 1.062-.257.17-.5.36-.752.54-1.44 1.283-2.978 2.478-4.037 4.118-1.24 1.807-2.55 3.593-3.422 5.617-.84 1.845-1.698 3.635-1.613 5.724.175 2.002.53 3.966 1.3 5.832.753 2.096 1.955 3.92 3.377 5.628l-9.633 5.757z"/><path d="M58.172 132.997c2.097.645 4.273.93 6.452 1.103l5.965.722c2.17.2 4.358.468 6.435 1.148 1.76.636 3.437 1.414 5.28 1.786 1.487.542 3.037.792 4.607.9l5.41.097c1.842-.072 3.707.154 5.53-.148 1.736-.556 3.43-1.18 5.07-1.98l1.988-.95.92-.556-6.74 3.712c1.252-1.216.86-.868-.45-1.018-1.763-.14-3.534-.105-5.3-.104l-5.747.024c-1.978-.128-3.912.14-5.865.4-1.835.262-3.687.3-5.537.35-1.708-.065-3.25.752-4.884 1.143-1.907.402-3.785.323-5.7.104-2.132-.12-4.215-.513-6.318-.844-1.927-.356-3.725-.96-5.518-1.73-1.883-.803-3.2-2.19-4.416-3.778-3.495-4.682 3.934-11.095 9.835-7.847 1.73.54 3.307 1.32 4.813 2.333 1.946 1.25 3.724 2.727 5.444 4.266 1.49 1.27 3.108 2.367 4.676 3.536 1.348 1.2 2.716 2.24 4.455 2.767 1.727.34 3.495.33 5.248.34l5.62-.024c1.245-.07 2.526.16 3.752-.14.565-.138 1.102-.372 1.653-.555 1.644-.58 3.375-.69 5.1-.78 1.828-.38 3.686-.597 5.55-.7 1.904-.1 3.81-.095 5.717-.102l11.342.007h11.34c2.1.187 3.877 1.27 5.46 2.586 1.54 1.384 2.327 3.172 2.828 5.137.56 2.33-.357 4.54-1.017 6.743-.5 1.936-.828 3.908-1.53 5.788-.655 1.718-1.413 3.355-2.452 4.874-1.102 1.65-2.352 3.193-3.56 4.765-1.428 1.756-2.535 3.733-3.86 5.565-1.63 1.78-3.65 3.156-5.47 4.742-.783.305-1.108 1.3-1.72 1.775-.295.23.01-1.22-.332-1.07-3.205 1.423-6.112 3.438-9.168 5.157 1.404-1.583 1.94-3.793 2.398-5.815.49-2.16.925-4.316 1.705-6.392.734-1.906 1.705-3.716 2.828-5.42 1.12-1.403 2.45-2.602 3.573-4.005.93-1.3 1.274-2.865 1.884-4.314.702-1.525.9-3.175 1.02-4.828.052-1.707.385-3.534-.515-5.067-1.183-1.024-2.67-1.767-4.132-2.328-1.554-.826-3.272-1.08-5-1.244-1.627-.12-3.26-.1-4.9-.106l-5.465.008c-1.902.037-3.8-.1-5.7.124-2.28.2-4.522.623-6.784.942-2.112.312-4.245.4-6.376.438-1.717.027-3.405-.394-5.11-.576-1.574-.112-3.165-.047-4.657-.632-3.38-4.573 7.3-6.525 11.6-7.264 1.613-.227 3.246-.224 4.865-.375.05-.017.194-.08.15-.05-10.033 7.044-6.16 6.676-12.523 6.637-1.886.002-3.773-.002-5.66.001-2.096.268-3.887-.45-5.79-1.182-1.895-.897-3.86-1.632-5.72-2.6l-5.052-3.236a29.56 29.56 0 0 0-5.368-3.871c-2.188-1.018-3.627-2.628-4.7-4.753-.858-2.188-.258-4.22.566-6.295.772-1.877 1.336-3.826 1.89-5.775.518-2.397 1.35-4.654 2.58-6.77 3.144-4.887 8.775-7.242 13.97-9.588 1.172-.585 2.497-.608 3.723-1.007.614-.2 1.208-.458 1.816-.676 1.69-.677 3.256-1.63 4.955-2.272.304-.092.612-.173.913-.277.63-.218 1.14-.44 1.724-.765.28-.156 1.098-.66.82-.503-8.488 4.826-11.55 6.828-7.9 4.465 1.745-1.106 3.37-2.39 5-3.657 1.655-1.4 3.3-2.78 5.105-3.974 1.82-1.018 3.498-2.242 5.09-3.586 1.727-1.7 3.604-3.2 5.545-4.64 1.743-1.383 3.488-2.754 5.35-3.976 1.964-1.317 4.017-2.5 5.91-3.927 3.725-3.22 2.634-1.957 11.538-5.165.203-.073-.27.336-.416.496-.19.208-.39.404-.584.606-1.723 1.82-3.567 3.508-5.45 5.157-1.64 1.5-3.315 2.95-5.154 4.203-4.838 2.886-9.48 6.234-14.675 8.434-3.43 1.773-8.554 4.7 7.137-4.153.277-.156-.53.35-.793.53-1.59 1.09.1-.025-1.615 1.09-4.185 2.513-8.462 4.87-12.694 7.304l-2.417 1.36 8.233-4.737c-16.546 9.4-6.333 4.183-11.94 6.594-1.28.55-1.01.43-2.227 1.137l-1.163.683 8.304-4.76c-2.33 1.395-4.587 2.893-6.8 4.465-1.95 1.245-3.63 2.85-5.482 4.223-1.83 1.19-3.534 2.566-5.14 4.04-1.534 1.47-2.75 3.213-3.86 5.013-.958 1.567-1.18 3.363-1.325 5.154-.088 1.877-.075 3.758-.063 5.636.063 1.4-.1 3.235 1.037 4.245.663-.03.344.075.93-.386l-9.01 4.97c-.25.132.457-.337.647-.545.526-.576.63-.944.954-1.645.673-1.928 1.026-3.943 1.534-5.916.645-1.88 1.524-3.67 2.248-5.52.673-1.698 1.324-3.407 2.08-5.07 1.052-1.775 1.772-3.7 2.774-5.5 1.1-1.793 2.277-3.49 3.74-4.996 1.754-1.746 3.878-3.02 5.956-4.33 3.868-2.582 7.718-5.514 12.03-7.205.54-.212.645 1 .745 1.57.03.165-.28.184-.42.276-1.59 1.12-2.696 2.744-3.815 4.3-1.312 1.622-2.337 3.428-3.294 5.272-.89 1.723-2.09 3.24-3.484 4.574-1.364 1.212-2.698 2.456-4.227 3.46-.11.068-.202.228-.328.203-.135-.027-.348-.74-.314-.915.032-.162.802-.658.826-.675l-8.907 5.093c1.65-.936 3.14-2.098 4.62-3.278 1.76-1.234 3.26-2.752 4.466-4.525 1.187-1.915 2.36-3.845 3.66-5.688 1.308-1.488 2.59-3.02 4.044-4.372 1.633-1.295 3.306-2.54 4.97-3.793 1.823-1.193 3.663-2.348 5.434-3.62 1.746-1.226 3.488-2.458 5.17-3.772 1.512-1.252 3.2-2.256 4.8-3.39 1.665-1.265 3.337-2.51 4.926-3.872l1.808-1.59 10.282-4.158c-1.243 1.02-.642.497-1.804 1.57a69.89 69.89 0 0 1-4.853 3.939c-1.56 1.21-3.264 2.183-4.845 3.36-1.65 1.358-3.385 2.598-5.123 3.838-1.812 1.207-3.497 2.612-5.467 3.576l-4.96 3.743c-1.6 1.167-2.724 2.777-4.14 4.147-1.462 1.702-2.53 3.724-3.748 5.602-1.093 1.898-2.474 3.592-4.27 4.878-1.527 1.104-2.875 2.46-4.553 3.352l-10.262 5.955c-.8.453-1.462.28-1.972-.497-.437-.666-.277-.633.106-1.042 1.538-1 3.033-2.003 4.34-3.316 1.427-1.22 2.712-2.56 3.633-4.216 1.007-1.865 1.904-3.808 3.29-5.436 1.13-1.572 2.138-3.218 3.537-4.573.796-.64.262-.4 1.354 1.113 3.368-1.32 6.244-3.653 9.377-5.46.8-.456-3.114 1.876-2.268 1.533-2.04 1.35-4.24 2.474-6.067 4.123a23.67 23.67 0 0 0-3.813 4.724c-1.104 1.737-1.744 3.67-2.807 5.423-.833 1.6-1.38 3.315-2.1 4.962-.65 1.856-1.527 3.623-2.305 5.427-.54 2.005-.972 4.03-1.49 6.04-.232.693-.416 1.348-.77 1.993-2.25 4.095-8.182 8.597-12.434 6.106-1.15-1.416-1.423-3.202-1.386-4.995-.005-1.9-.035-3.802.03-5.702.082-1.916.255-3.88 1.11-5.63 1.054-1.893 2.293-3.7 3.762-5.294 1.518-1.578 3.264-2.972 5.056-4.22 1.982-1.226 3.572-2.94 5.515-4.226 2.265-1.517 4.434-3.178 6.814-4.524L83.1 90c1.13-.657 2.284-1.195 3.47-1.735.392-.178 1.538-.77 1.17-.55l-8.225 4.8 10.678-6.175 2.433-1.384 1.13-.635-7.43 4.325c.827-.492 1.58-1.122 2.397-1.61 3.935-2.344 7.815-4.88 11.98-6.827 3.72-1.923 1.76-.926-7.838 4.598-.3.172.584-.37.88-.546s.594-.335.892-.503c.28-.185.553-.383.84-.555.258-.154.53-.282.796-.423 1.868-1.23 3.68-2.52 5.278-4.1 1.857-1.614 3.73-3.206 5.4-5.03.3-.32.538-.764.945-.944 18.27-8.048 12.536-6.236 9.128-3.436-1.77 1.602-3.915 2.685-5.86 4.057-1.896 1.158-3.686 2.46-5.382 3.898-1.917 1.44-3.922 2.766-5.55 4.553-1.56 1.4-3.174 2.75-5.022 3.76-1.884 1.06-3.557 2.417-5.167 3.854-1.606 1.296-3.243 2.56-4.926 3.753-4.747 2.954-9.4 6.2-14.695 8.028-1.645.78-3.28 1.593-4.996 2.21-1.814.62-3.73.924-5.458 1.78-3.705 1.913-2.622 1.374 7.812-4.67.27-.156-.523.34-.766.534a11.1 11.1 0 0 0-2.145 2.293c-1.325 1.983-2.292 4.11-2.687 6.482-.573 1.976-1.075 3.976-1.85 5.887-.747 1.79-1.612 3.478-.983 5.458.983 2.076 2.292 3.175 4.338 4.2 1.908 1.153 3.68 2.488 5.417 3.88 1.668 1.04 3.268 2.188 4.973 3.165 1.855.9 3.77 1.676 5.66 2.5 1.828.68 3.605 1.02 5.572.842l5.67-.01 2.404-.012c.214-.001.805-.137.64 0-8.134 6.79-5.053 7.274-8.768 6.65-1.58.02-3.162.156-4.714.456-8.242 1.81 10.74-1.693 6.647-5.79 1.452.408 2.977.272 4.46.478 1.655.22 3.305.58 4.985.467 2.093-.063 4.186-.196 6.257-.52 2.276-.36 4.553-.706 6.85-.904 1.924-.107 3.85-.042 5.777-.063l5.48-.014c1.656-.001 3.316.017 4.962.214 1.798.256 3.55.67 5.18 1.497 1.633.74 3.34 1.553 4.512 2.946 1.082 1.897.905 3.535.826 5.646-.097 1.743-.2 3.516-.85 5.157-.63 1.516-1.11 3.068-1.787 4.558-1.008 1.504-2.28 2.757-3.572 4.017-1.3 1.517-2.182 3.372-3 5.18-.88 2-1.274 4.103-1.794 6.216-.43 2.18-1.032 4.373-2.038 6.358-3.358 2.02-6.546 4.355-10.073 6.064-.352.17-.658-.442-.904-.746-.464-.572.378-1.55.692-1.898.266-.295.583-.54.875-.8 1.778-1.596 3.617-3.107 5.536-4.524 1.39-1.796 2.5-3.767 3.854-5.578 1.2-1.562 2.448-3.088 3.54-4.727 1.11-1.42 1.956-2.934 2.56-4.64.86-1.806 1.163-3.755 1.608-5.69.605-2.023 1.655-4.053 1.244-6.204-.383-1.76-1.038-3.312-2.442-4.51-1.48-1.15-3.122-1.978-5.045-1.955-1.895-.003-3.79.003-5.686-.001-1.884.006-3.77-.003-5.653.001-1.896-.003-3.79.002-5.687-.004-1.884.004-3.77-.01-5.653.001-1.9.008-3.782.026-5.668.162-1.865.172-3.708.477-5.565.705-1.688.142-3.346.422-4.95.98-1.84.493-3.697.47-5.592.436l-5.625.005c-1.843-.034-3.714-.064-5.487-.63-1.74-.72-3.173-1.85-4.608-3.053-1.6-1.17-3.2-2.33-4.7-3.642-1.688-1.5-3.437-2.933-5.37-4.11-1.49-.92-3.07-1.562-4.748-2.057-4.072-.277.387.104 9.025-5.4.162-.103-.26-.325-.45-.363-.276-.055-.064.584.045.844.112.266.273.5.4.765 1.136 1.433 2.393 2.62 4.138 3.286 1.717.727 3.508 1.187 5.342 1.523 2.08.35 4.16.635 6.267.79 1.854.137 3.7.037 5.513-.452 1.65-.476 3.27-1.054 5.02-.923 1.824-.057 3.646-.176 5.455-.428 1.98-.243 3.96-.365 5.957-.294l5.742-.02c1.825-.006 3.667-.04 5.473.25 1.778.476 2.9 1.476 1.58 3.238-.812.8-.708.792-1.732 1.39-4.425 2.59-8.753 5.425-13.457 7.5-1.714.74-3.47 1.45-5.33 1.72-1.862.09-3.728.026-5.592.046-1.83-.01-3.662-.004-5.486-.17-1.604-.185-3.158-.563-4.702-1.033-1.807-.492-3.484-1.306-5.267-1.87-2.072-.55-4.214-.777-6.347-.96-1.978-.233-3.94-.6-5.927-.734a43.83 43.83 0 0 1-6.645-1.219l9.246-6.332z"/><path d="M56.583 214.733c2.018-1.77 3.932-3.653 5.698-5.675l4.813-5.66c1.215-1.6 2.803-2.826 4.448-3.95 4.7-2.987 9.34-6.38 14.84-7.5 1.688-.433 3.274-.845 4.752-1.8 1.55-.837 3.146-1.596 4.8-2.2 1.78-.933 3.653-1.675 5.452-2.574l.95-.485c.67-.32 2.626-1.385 1.982-1.016l-6.5 3.65.894-.544 10.412-5.905c1.8-1.008-.115.126 1.66-.773.3-.148 1.128-.66.844-.497l-8.625 4.942c1.656-1.148 3.346-2.244 5.034-3.344 1.927-1.26 3.673-2.747 5.404-4.257 1.762-1.585 3.566-3.136 5.16-4.894 1.213-1.52 1.727-3.4 2.176-5.255.02-.162.227-.96-.014-1.227-.133-.147-.618.347-.55.3 8.68-4.587 12.198-7 8.612-4.57-1.442 1.377-2.655 2.964-3.8 4.583-1.338 1.9-2.636 3.85-4.106 5.66-1.484 1.63-3.15 3.066-4.64 4.7-1.314 1.555-2.68 3.05-4.35 4.226l-1.498.877c.518-.296-.992.666-1.5.964-9.24 5.342-6.915 4.086-11.064 6.3-1.648.66-3.352 1.1-4.98 1.816-1.93 1.077-4.065 1.697-6.07 2.618-.295.12-.586.25-.885.36-.932.343-.776.194-1.657.624-.26.127-1.014.565-.762.42l7.92-4.497c-2 1.128-3.8 2.57-5.73 3.83-5.68 3.397-22.268 12.653-3.22 1.82.544-.3-1.048.684-1.557 1.047-1.332 1.03-2.603 2.15-3.748 3.387-.103-.2-.253-.4-.085-.655.1-.165 1.525-.9 1.72-1.016l-8.763 5.015c1.63-1.142 3.167-2.4 4.753-3.6 4.566-3.14 9.325-6.133 14.467-8.22 1.745-.492 3.287-1.47 4.915-2.238 1.82-.618 3.637-1.25 5.417-1.972a25.42 25.42 0 0 1 5.928-2.586c2.1-.642 4.27-.996 6.295-1.825 2.187-.76 4.262-1.783 6.342-2.793 4.64-2.618-5 2.894-7.502 4.3-.323.182.63-.392.932-.606.4-.3.673-.593 1.036-.9.004.245.046.4-.174.598-.714.678-2.2 1.294-3.077 1.734-.78.333-1.188.488-1.936.884a19.57 19.57 0 0 0-.897.515l8.647-4.956c.284-.162-.553.35-.836.512l-10.363 5.92c-1.885.8-3.88 1.372-5.868 1.862-1.776.193-3.42.8-5.05 1.5-1.8.72-3.7 1.004-5.503 1.686-.322.093-.65.173-.967.28-.67.225-1.246.477-1.865.816-.3.165-1.178.7-.88.532 8.496-4.83 11.48-6.77 7.808-4.4-2.083 1.363-4.052 2.894-6.055 4.37l-1.177.908-10.248 4.1 1.167-.927 5.933-4.417c4.843-3.023 9.576-6.453 15.084-8.094 1.83-.552 3.708-.962 5.466-1.73 1.68-.615 3.368-1.1 5.132-1.397 1.95-.553 3.93-1.1 5.72-2.06l-8.73 5.07a126 126 0 0 1 .852-.498l10.4-6.045c.912-.524 1.9-.878 2.836-1.378.918-.5 2.353-1.6 3.48-1.434.64.093.78.475 1.13.935.04.22.14.436.118.657-.086.87-1.095 1.6-1.755 1.98-9.323 5.516-7.025 4.33-11.537 6.608-2.115.98-4.212 2.002-6.433 2.73-2.078.658-4.217 1.112-6.293 1.783-2.044.745-3.954 1.732-5.92 2.65-1.803.662-3.616 1.3-5.38 2.067-1.606.817-3.233 1.58-4.932 2.185-3.6 1.66-8.3 4.595 6.956-4.246 2.28-1.32-4.58 2.5-2.314 1.46-1.657 1.107-3.18 2.407-4.732 3.655l-10.33 6.03c-.532.305-1.602.77-2.24.486-.7-.3-.693-.56-.93-1.15.424-1.577 2.525-2.77 3.634-3.926 3.664-2.955 7.277-4.5 11.832-7.13.26-.15 1.056-.573.797-.42l-8.732 5.068c-.284.164.565-.332.848-.498 2.016-1.116 3.717-2.7 5.733-3.812 4.636-2.992 9.313-5.955 14.5-7.842 2.037-.83 4.094-1.614 6.066-2.594 1.654-.64 3.388-1.078 4.952-1.928 3.748-1.97 1.167-.627-8.045 4.72-.516.3.987-.674 1.502-.977l10.297-5.973c2.924-1.715-5.867 3.397-8.8 5.096 1.823-.924 3.237-2.37 4.525-3.94 1.453-1.658 3.02-3.182 4.64-4.678 1.592-1.68 2.8-3.662 4.152-5.534 1.1-1.688 2.333-3.268 3.658-4.786 2.9-3.63 1.126-1.585 10.825-6.27.737-.356 1.497 1.268 1.55 1.694.04.324-.026.653-.04.98-.42 1.982-.912 4-1.994 5.736-1.427 1.944-3.378 3.425-5.12 5.08-1.718 1.515-3.4 3.07-5.3 4.36-1.655 1.168-3.446 2.132-5.038 3.4l-10.423 6.066c-.173.1-1.466.715-1.7.83-.278.136-1.1.572-.832.415l7.755-4.53c-4.996 3.2-10.12 6.263-15.487 8.814l-5.506 2.524c-1.613.694-3.196 1.46-4.725 2.326-1.57.744-3.258 1.113-4.936 1.547-.903.245-1.773.52-2.633.893-.297.128-1.158.572-.88.406l7.914-4.636c-1.633 1.08-3.293 2.14-4.6 3.636-1.552 1.977-3.25 3.82-4.876 5.737-1.726 2.037-3.572 3.92-5.48 5.785l-10.383 4.2zM119.22 67.37l.914-.344 2.396-1.053c-15.107 8.837-8.936 5.508-5.972 2.962 1.724-1.806 3.4-3.694 4.588-5.9.53-1.316 1.24-3.1.382-4.408.177-.666-1.83 1.068-1.337.807 2.948-1.565 5.76-3.375 8.715-4.93.35-.184-.6.516-.87.802s-.5.607-.764.9c-1.203 1.6-1.73 3.547-2.5 5.367-.67 1.635-1.084 3.36-1.548 5.06l-.32.896-10.125 4.68.362-.8c.55-1.707.857-3.5 1.495-5.17.796-1.894 1.43-3.86 2.442-5.65 3.108-4.45 4.902-4.23 11.818-8.158.86-.5 1.738-.04 2.336.575.948 1.72.7 3.622.058 5.423-1.08 2.392-2.814 4.332-4.527 6.296-4.34 4.628-10.5 7.36-16.424 9.474l8.88-6.836z"/><path d="M82.768 195.697c-2.197.778-4.317 1.83-6.308 3.04 16.535-10.248 7.292-4.038 3.623-1.424-1.866 1.334-3.568 2.873-5.232 4.446-1.412 1.26-2.9 2.408-4.15 3.84l-2.687 4.905c-.757 1.48-1.375 3.03-1.916 4.6a47.92 47.92 0 0 1-2.09 5.495A40.2 40.2 0 0 1 61 226.456c-.287-.08-.52 1.474-.55 1.472-.087-.007-.013-.282-.092-.245-9.816 4.564-11.494 8.143-9.566 4.332.64-1.758.662-3.643 1.107-5.447.517-1.816 1.382-3.5 2.026-5.27.6-2.128 1.707-3.994 2.957-5.8 1.24-1.95 2.7-3.73 4.336-5.368 1.483-1.296 2.963-2.6 4.523-3.805 1.605-1.12 3.238-2.203 4.872-3.282 5.223-5.46 8.38-4.866 13.392-6.935.652-.27 1.268-.62 1.9-.915 3.214-1.737-1.293.68 1.858-.95.294-.152 1.154-.647.867-.482l-8.692 4.986c8.818-5.328 6.85-4.406 11.167-6.356 3.713-1.942 1.7-.907-8.016 4.638-.264.15.524-.3.778-.475.8-.522 1.538-1.13 2.286-1.722 4.342-3.655 9.032-5.8 14.173-8.687l.884-.346-8.76 6.894-.876.367c16.553-9.686 8.34-5.315 4.935-2.35-1.017.733-1.918 1.686-3.003 2.32l-10.334 5.936c-.254.145-.523.263-.785.394l-.77.42 8.7-5.043c-4.36 2.514-8.58 5.244-13.136 7.373-4.03 1.816-13.52 5.2 3.784-3.092-1.67 1-3.207 2.204-4.9 3.184-1.576 1.18-3.068 2.447-4.578 3.7-1.732 1.47-3.23 3.243-4.45 5.155-1.2 1.73-2.507 3.412-3.048 5.494-.576 1.787-1.407 3.464-2.05 5.224-.6 1.783-.585 3.654-1.018 5.48-1.214 5.097-12.86 9.983-10.14 3.685 1.14-1.86 2.326-3.674 3.107-5.73.75-1.778 1.54-3.495 2.068-5.355.476-1.633 1.117-3.23 1.87-4.752.785-1.75 1.912-3.317 2.58-5.125 1.126-1.592 2.574-2.84 4.13-4.005 1.664-1.6 3.353-3.202 5.205-4.597 4.868-3.596 9.885-6.88 15.316-9.644 2.1-1.135 4.26-2.1 6.436-3.06l-8.76 7.006zm32.686-65.283l5.145.16-9.046 6.46-5.184-.02 9.085-6.6z"/><path d="M103.303 137.81l6.385-.493a28.71 28.71 0 0 1 6.126.646l5.074 1.474 4.805 2.44c1.917 1.076 3.652 2.394 4.932 4.187 1.278 1.603 2.42 3.248 3.106 5.188.605 1.858.472 3.762.142 5.654-.486 1.78-.775 3.594-1.076 5.4-.215 1.972-1.12 3.64-2.18 5.268-.932 1.66-1.884 3.284-3.086 4.764-1.334 1.528-2.745 3-4.288 4.307-4.507 3.404-9.446 6.406-14.974 7.56-1.77.283-3.49.95-5.132 1.667-1.468.762-3.074 1.136-4.612 1.707-3.928 2.003 2.314-1.17 8.76-5.022.07-.04-.146-.084-.183-.155-.14-.264-.328-.532-.335-.83-.001-.035.545-.253.846-.377 3.33-1.86 8.105-4.54-7.36 4.217-.276.156.536-.34.805-.5 1.055-.67.577-.358 1.62-1.065 1.117-.776 2.136-1.677 3.146-2.584l10.3-4.215c-.997.937-1.998 1.872-3.083 2.708-.78.58-1.56 1.13-2.398 1.622-3.172 1.857-7.68 5.3-11.928 6.645-1.02.14-1.334.203-1.878-.887-.072-.145-.18-.4-.043-.485 3.25-2.032 6.63-3.85 9.972-5.724.18-.1.4-.133.586-.2 1.563-.482 3.052-1.132 4.567-1.744 1.707-.615 3.406-1.254 5.21-1.525.926-.25 1.838-.526 2.73-.877.286-.112 1.1-.52.847-.36-6.712 4.038-11.837 6.755-7.795 4.6a35.92 35.92 0 0 0 4.362-4.127c1.26-1.406 2.34-2.903 3.138-4.626.99-1.542 2.165-2.972 2.36-4.872.372-1.81.475-3.676 1.08-5.44.42-1.694.564-3.408.096-5.113-.58-1.86-1.685-3.393-2.882-4.913-1.24-1.61-2.875-2.8-4.68-3.73-1.577-.76-3.127-1.583-4.733-2.272-1.654-.474-3.286-1.04-4.973-1.384-1.964-.3-3.96-.575-5.95-.45-2.14.12-4.288.26-6.398.668l8.973-6.75z"/><path d="M98.16 175.133c1.238 1.697 1.966 3.605 2.412 5.64l.163 1.005-9.85 5.202-.126-.952c-.363-1.873-.973-3.66-2.232-5.137l9.633-5.757zm-.905 13.25c1.342-1.82 3.1-3.18 4.927-4.455 1.836-1.226 3.514-2.658 5.14-4.146 1.43-1.405 3.06-2.67 4.023-4.46.325-.782-.4.832.346.5 13.07-5.814 11.53-7.45 8.185-3.603l-3.643 4.323c-1.36 1.363-2.82 2.613-4.33 3.803-4.743 3.3-10.015 5.783-14.992 8.72-.312.16-.62.335-.937.482-.393.182-.766.456-1.196.508-.587.072-.756-1.04-.703-1.63.02-.226.394-.225.6-.337 2.102-1.324 4.092-2.83 6.04-4.37 4.438-3.844 9.633-6.694 14.973-9.13 1.766-.634 3.38-1.612 5.006-2.534 3.9-1.85 11.3-6.244-5.288 3.235l10.393-4.066c-4.585 2.682-9.048 5.443-13.77 7.83-1.64.917-3.313 1.768-5.06 2.465-3.954 1.862-.772.396 7.7-4.606.307-.18-.64.313-.94.506-.628.405-1.208.883-1.8 1.35-.327.263-.637.546-.956.82-1.904 1.557-3.897 2.992-5.86 4.474-.177.107-.35.42-.53.32-.45-.25-.7-.765-1.004-1.174-.03-.038-.04-.113-.002-.142.305-.24.7-.314 1.055-.496.305-.162.604-.335.906-.502l1.93-1.082.984-.54-6.907 4.045c1.492-1.194 3.023-2.326 4.368-3.693 1.386-1.284 2.487-2.758 3.663-4.23 3.516-4.1 1.573-2.807 11.413-7.164.297-.132.448.5.57.8.06.15-.035.324-.052.486-.812 2.02-2.327 3.433-3.908 4.882-1.615 1.53-3.264 3.03-5.095 4.3-1.776 1.223-3.664 2.316-4.942 4.1l-10.32 4.4zm-32.273-70.18c1.78 1.34 2.93 3.063 3.643 5.145.498 1.885.487 3.813 1.176 5.65.905 1.737 2.86 2.245 4.64 2.63.975.275 2.015.146 3 .305 1.134.183 2.274.586 3.396.84 2.03.46 4.107.6 6.183.667l5.672.03c1.8.146 3.534-.14 5.3-.43 1.692-.267 3.4-.293 5.118-.33 1.9.052 3.744-.012 5.612-.284 1.875-.303 3.774-.388 5.67-.452l5.718-.033c1.978.076 3.925-.022 5.886-.25 2.098-.285 4.2-.397 6.326-.466l.944-.022.73-.026c.2-.01.763-.168.6-.053-9.644 6.76-5.708 6.693-10.2 6.633-1.754-.04-3.512.08-5.254-.15-1.885-.555-3.78-.998-5.733-1.214-1.847-.167-3.703-.17-5.555-.172-1.9-.004-3.8.002-5.7.004-1.85.1-3.762.284-5.568.733-1.9.448-3.817.627-5.75.724-1.88.127-3.74.486-5.62.664-1.9.13-3.823.145-5.736.155l-5.638.002c-1.833-.01-3.666-.002-5.5.001-2.32.192-3.214-.443-5.063-1.726-1.6-1.45-2.64-3.366-3.587-5.278-.555-1.686-1.557-3.15-2.35-4.718-.9-1.785-.963-3.574-.46-5.47l.656-1.938 10.08-4.73c-.427 1.282-.205.643-.666 1.914-.633 1.733-.7 2.987.094 4.7.776 1.583 1.822 3.03 2.342 4.735.833 1.743 1.745 3.53 3.258 4.78 1.73 1.077 2.7 1.3 4.733 1.165l5.5.007 5.622-.003c1.896-.02 3.795-.052 5.682-.246 1.88-.2 3.745-.566 5.64-.62a38.03 38.03 0 0 0 5.667-.85c1.882-.295 3.783-.6 5.693-.55l5.714-.004c1.877.024 3.76.042 5.625.288 1.93.285 3.786.84 5.7 1.183 1.75.08 3.504.028 5.256.024 4.27-.052.964-.14-8 6.636-.07.054-1.04-.026-1.203-.023l-.93.026a74.39 74.39 0 0 0-6.253.515c-2 .2-3.985.195-5.985.172l-5.702.075c-1.875.084-3.744.242-5.6.523-1.894.212-3.792.158-5.695.206-1.687.056-3.374.154-5.04.45-1.787.27-3.572.328-5.38.273-1.9.008-3.802.006-5.7-.073-2.1-.122-4.2-.34-6.264-.855-2.132-.496-4.27-.793-6.424-1.154-2.105-.595-4.207-1.436-5.22-3.523-.734-1.854-.866-3.755-1.2-5.702-.585-1.88-1.615-3.415-3.323-4.47l9.438-6.043zm36.775 91.462l-.043 6.698c-.163 2.184.15 4.267.623 6.388.5 2.026.714 4.102.842 6.18l-.146 2.25-9.953 4.95.2-2.088c-.082-2.03-.245-4.056-.713-6.038-.512-2.297-.972-4.208-.746-6.598l-.043-6.654 10-5.1zm6.016-3.198c1.674-5.273 8.202-10.12 13.514-9.737 1.93.583 3.15 2.127 4.23 3.73l-9.6 5.64c-.875-1.258-1.922-2.722-3.612-2.722-3.925 1.2-1.12.403 8.033-4.985.284-.167-.58.326-.826.544-.805.7-1.36 1.674-1.65 2.695l-10.1 4.834zm43.357 4.146c1.823 1.8 3.103 4.054 4.423 6.235 1.056 1.812 1.913 3.713 2.42 5.748.495 1.835.808 3.688 1.613 5.42.417.755.998 1.34 1.638 1.902l-9.497 5.866c-.703-.7-1.37-1.396-1.833-2.28-.856-1.798-1.25-3.696-1.734-5.618-.43-1.938-1.243-3.743-2.192-5.483-1.256-2.122-2.487-4.316-4.396-5.932l9.558-5.857zm14.9-7.846l-.05 5.2-9.905 5.047-.05-5.14 10.006-5.098zm12.096 12.853l-.045 6.23.01 4.06-9.933 5.06.01-4.07-.045-6.185 10.006-5.098z"/><path d="M56.434 127.15c1.555-1.76 2.837-3.732 4.123-5.7 1.088-1.7 1.494-3.63 1.687-5.607.01-2.084.6-4.074 1.323-6.007 2.8-5.835 9.194-7.746 14.6-10.8 2.396-.525 2.435 1.654 1.895 3.307a30.92 30.92 0 0 1-3.166 5.402c-1.523 2.07-3.187 4.028-4.904 5.938-1.188 1.58-2.9 2.673-4.13 4.2-.348.653-.226-.77-.24-.764-13.84 6.94-11.1 7.114-7.886 3.96 1.738-1.727 3.156-3.732 4.755-5.582 1.574-1.97 3.162-3.916 4.88-5.764 1.543-1.628 3.136-3.207 4.724-4.8 1.5-1.47 2.93-2.994 4.518-4.358 1.574-1.27 3.08-2.622 4.553-4.008 1.667-1.72 3.65-3.076 5.536-4.537 1.74-1.3 3.286-2.8 4.7-4.432.866-.974 1.7-1.964 2.5-2.993l10.24-4.4c-.794 1.052-1.582 2.1-2.493 3.056-1.432 1.68-2.885 3.324-4.67 4.648-1.85 1.475-3.857 2.76-5.542 4.426-1.46 1.406-2.934 2.8-4.514 4.072-1.63 1.317-3.118 2.768-4.574 4.275l-4.762 4.77c-1.752 1.822-3.432 3.693-4.918 5.74-1.636 1.805-3.03 3.792-4.66 5.598-3.444 3.726-3.377 3.1-11.34 7.2-.415.212-1.043-.862-1.095-1.017-.057-.172.017-.362.026-.542.876-1.902 2.908-2.813 4.15-4.465 1.73-1.863 3.432-3.76 4.907-5.834a26.18 26.18 0 0 0 3.227-5.121c.563-1.02 1.286-1.876-.444-1.075l8.502-5.02c.344-.202-.692.397-1.023.618-1.38.924-2.518 2.14-3.282 3.622-.78 1.798-1.413 3.718-1.443 5.694-.147 2.122-.466 4.2-1.5 6.113-1.236 1.97-2.545 3.913-3.97 5.75l-10.32 4.4zm75.316 18.526l-3.613 7.145c-.985 2.194-1.847 4.452-2.452 6.78-.205 1.994-.98 3.786-1.776 5.595-.668 1.843-1.3 3.665-2.285 5.37-1.325 2.175-2.982 4.1-4.86 5.798-4.82 4.27-10.72 7.087-16.248 10.277-.506.277-4.06 2.263-4.318 1.927-.25-.324-.356-.735-.534-1.103.063-.192.084-.403.2-.577.156-.258 1.08-1.195 1.24-1.357l2.663-2.655c1.674-1.677 3.3-3.403 5.222-4.787 1.725-1.198 3.443-2.408 5.1-3.7 1.552-1.293 3.137-2.548 4.8-3.7 1.683-1.047 2.6-2.58 3.4-4.34.766-1.897 1.156-3.9 1.883-5.812.67-1.556.923-3.206 1.05-4.88.184-1.662-.172-3.185-.973-4.63-.36-.534-.82-1.338-1.563-1.415-.258-.027-.812.636-.584.512 3.146-1.706 6.2-3.56 9.314-5.34-.706.888.037 2.464.352 3.422.6 1.613.924 3.307 1.447 4.944.117.277.218.56.352.83.067.135.414.8.663.9.055.024.206-.127.153-.1-9.742 5.067-12.55 7.365-9.442 4.853.4-1.497.412-3.108.305-4.648-.14-1.908-.718-3.7-1.666-5.35-.955-1.717-2.26-3.373-4.218-3.932-.713.145-.42-.027-.9.498l9.253-5.255c.1-.06-.2.155-.265.268-.143.294-.1.824-.112 1.116.273 1.653.976 3.25 1.928 4.624l-9.613 5.642c-1.04-1.568-1.833-3.314-2.28-5.145-.02-.28-.3-2.014-.03-2.188 4.104-2.76 6.938-7.074 11.3-5.766 1.978 1.057 3.508 2.585 4.577 4.567 1.027 1.782 1.692 3.705 1.908 5.76.196 1.667.104 3.356-.017 5.028-.332 7.585-10.14 9.464-11.675 3.657-.548-1.622-.9-3.302-1.463-4.916-.512-1.42-1-2.904-.922-4.43 5.596-3.408 9.153-9.255 12.858-3.72.9 1.6 1.446 3.323 1.28 5.197-.098 1.765-.23 3.534-.9 5.2-.765 1.924-1.304 3.882-1.9 5.86-.742 1.87-1.427 3.667-3.117 4.898-1.663 1.154-3.322 2.322-4.85 3.655-1.623 1.335-3.33 2.554-5.045 3.766-2 1.314-3.75 2.852-5.365 4.628l-2.603 2.6c-.395.4-.733.866-1.188 1.196-.097.07-.228.075-.342.113-.204-.253-.455-.476-.613-.76-.05-.1.2-.18.63-.394 1.094-.544 2.185-1.095 3.245-1.705-16.526 9.634-5.937 3.84-2.63.84 1.916-1.606 3.65-3.355 5-5.483 1.055-1.625 1.744-3.35 2.3-5.202.736-1.8 1.785-3.45 1.895-5.44.515-2.417 1.458-4.718 2.396-6.996 1.1-2.432 2.454-4.726 3.467-7.2l10.222-4.557z"/><path d="M72.934 118.264c-.8 2.24-1.084 4.6-1.282 6.967.103 1.453-.485 3.506-.093 4.9-11.775 6.635-10.018 7.47-10.007.773-.1-2.097.395-4.128.846-6.155.624-2.077 1.014-4.206 1.64-6.28.693-2.224 1.344-4.462 2.117-6.66.624-2.004 1.53-3.892 2.46-5.768l.82-1.614L79.6 99.832c-.522 1.088-.244.55-.834 1.614-.9 1.87-1.968 3.674-2.53 5.686-.864 2.155-1.456 4.4-2.16 6.6l-.7 2.212c-.3 1.324-.374 2.7-.95 3.97-.435 1.955-1.04 3.906-.94 5.932-.01 7.17 1.4 3.48-10.02 9.395.45-1.6-.1-3.435.267-5.067.196-2.405.444-4.802 1.04-7.146l10.16-4.77zM125.2 149.85c.064 2.43-.655 4.73-1.422 7.005-.733 2.2-1.55 4.373-2.608 6.437l-2.805 5.306c-1.03 1.915-1.566 3.995-2.075 6.1.032.717-1.475 3.648-1.22 4.023.46-4.296 1-.953-9.077 4.42-.222.118.3-.397.44-.613.325-.55.6-1.24.836-1.82.768-2.206 1.8-4.307 2.728-6.442.798-1.77 2-3.298 3.075-4.908.946-1.4 1.67-2.908 2.245-4.483.52-1.725.605-3.53.66-5.32-.018-1.684.3-3.46-.517-4.997-.3-.285-.382-.496-.834-.462-.322.024-1.1.658-.827.503 9.078-4.966 11.55-7.657 8.663-4.626-.466.832-.286.4-.55 1.3l-10.05 4.9c.108-1.172-.013-.608.35-1.694 1.96-4.27.338-1.108 10.45-6.75.802-.447 2.12.723 2.5 1.287.893 1.74.827 3.598.752 5.516-.043 1.872-.08 3.756-.515 5.588-.436 1.68-1.2 3.3-2.127 4.75-.982 1.645-2.234 3.104-3.158 4.783-1 2.093-2.002 4.193-2.77 6.378-.07.213-.9 2.657-1.03 2.74-2.395 1.64-7.652 8.732-11.05 5.505-.1-.225-.263-.432-.3-.676-.226-1.463 1.2-2.66 1.264-4.087.596-2.108.93-4.313 2.025-6.252.775-1.883 1.73-3.65 2.77-5.4 1.153-1.98 1.964-4.125 2.717-6.284.757-2.123 1.628-4.3 1.45-6.604l10.006-5.098z"/></svg>