<?xml version="1.0" encoding="UTF-8" standalone="no"?>
<!-- Created with Inkscape (http://www.inkscape.org/) -->

<svg
   xmlns:dc="http://purl.org/dc/elements/1.1/"
   xmlns:cc="http://creativecommons.org/ns#"
   xmlns:rdf="http://www.w3.org/1999/02/22-rdf-syntax-ns#"
   xmlns:svg="http://www.w3.org/2000/svg"
   xmlns="http://www.w3.org/2000/svg"
   xmlns:sodipodi="http://sodipodi.sourceforge.net/DTD/sodipodi-0.dtd"
   xmlns:inkscape="http://www.inkscape.org/namespaces/inkscape"
   width="210mm"
   height="297mm"
   viewBox="0 0 210 297"
   version="1.1"
   id="svg8"
   sodipodi:docname="asdf.svg"
   inkscape:version="0.92.5 (2060ec1f9f, 2020-04-08)">
  <defs
     id="defs2" />
  <sodipodi:namedview
     id="base"
     pagecolor="#ffffff"
     bordercolor="#666666"
     borderopacity="1.0"
     inkscape:pageopacity="0.0"
     inkscape:pageshadow="2"
     inkscape:zoom="0.35"
     inkscape:cx="400"
     inkscape:cy="560"
     inkscape:document-units="mm"
     inkscape:current-layer="layer1"
     showgrid="false"
     inkscape:window-width="1360"
     inkscape:window-height="719"
     inkscape:window-x="0"
     inkscape:window-y="120"
     inkscape:window-maximized="1" />
  <metadata
     id="metadata5">
    <rdf:RDF>
      <cc:Work
         rdf:about="">
        <dc:format>image/svg+xml</dc:format>
        <dc:type
           rdf:resource="http://purl.org/dc/dcmitype/StillImage" />
        <dc:title></dc:title>
      </cc:Work>
    </rdf:RDF>
  </metadata>
  <g
     inkscape:label="Layer 1"
     inkscape:groupmode="layer"
     id="layer1">
    <g
       id="g4296"
       transform="matrix(0.26458333,0,0,0.26458333,-2.7044562,33.49201)">
      <g
         id="g4238">
	<g
   id="g4236">
		<path
   id="path4232"
   d="M 424.3,57.75 H 59.1 C 26.5,57.75 0,84.25 0,116.85 v 249.6 c 0,32.6 26.5,59.1 59.1,59.1 h 365.1 c 32.6,0 59.1,-26.5 59.1,-59.1 v -249.5 c 0.1,-32.6 -26.4,-59.2 -59,-59.2 z m 32.1,308.7 c 0,17.7 -14.4,32.1 -32.1,32.1 H 59.1 c -17.7,0 -32.1,-14.4 -32.1,-32.1 v -249.5 c 0,-17.7 14.4,-32.1 32.1,-32.1 h 365.1 c 17.7,0 32.1,14.4 32.1,32.1 v 249.5 z"
   inkscape:connector-curvature="0" />

		<path
   id="path4234"
   d="m 304.8,238.55 118.2,-106 c 5.5,-5 6,-13.5 1,-19.1 -5,-5.5 -13.5,-6 -19.1,-1 l -163,146.3 -31.8,-28.4 c -0.1,-0.1 -0.2,-0.2 -0.2,-0.3 -0.7,-0.7 -1.4,-1.3 -2.2,-1.9 L 78.3,112.35 c -5.6,-5 -14.1,-4.5 -19.1,1.1 -5,5.6 -4.5,14.1 1.1,19.1 l 119.6,106.9 -119.1,111.5 c -5.4,5.1 -5.7,13.6 -0.6,19.1 2.7,2.8 6.3,4.3 9.9,4.3 3.3,0 6.6,-1.2 9.2,-3.6 l 120.9,-113.1 32.8,29.3 c 2.6,2.3 5.8,3.4 9,3.4 3.2,0 6.5,-1.2 9,-3.5 l 33.7,-30.2 120.2,114.2 c 2.6,2.5 6,3.7 9.3,3.7 3.6,0 7.1,-1.4 9.8,-4.2 5.1,-5.4 4.9,-14 -0.5,-19.1 z"
   inkscape:connector-curvature="0"
   style="fill:#cccccc" />

	</g>

</g>
      <g
         id="g4240">
</g>
      <g
         id="g4242">
</g>
      <g
         id="g4244">
</g>
      <g
         id="g4246">
</g>
      <g
         id="g4248">
</g>
      <g
         id="g4250">
</g>
      <g
         id="g4252">
</g>
      <g
         id="g4254">
</g>
      <g
         id="g4256">
</g>
      <g
         id="g4258">
</g>
      <g
         id="g4260">
</g>
      <g
         id="g4262">
</g>
      <g
         id="g4264">
</g>
      <g
         id="g4266">
</g>
      <g
         id="g4268">
</g>
    </g>
    <path
       style="fill:#cccccc;stroke-width:2.85714293"
       d="M 24.80402,545.3952 C 15.006746,541.12626 -1.3548191,523.62583 -5.33425,513.15914 -6.8507323,509.17049 -8,446.43739 -8,367.64843 -8,237.12947 -7.6867657,228.53839 -2.5637657,218.54872 3.7512797,206.23461 12.524259,197.66054 25.539271,191.08287 c 8.351395,-4.22073 28.731623,-4.6015 209.041159,-3.90564 l 199.7876,0.77103 12.13297,8.57143 c 6.67311,4.71428 14.81889,13.71428 18.10169,20 5.82002,11.14382 5.96874,14.96404 5.96874,153.32622 v 141.89766 l -8.69026,12.3638 c -4.77966,6.80012 -13.77966,15.24646 -20,18.76963 L 430.57143,549.28283 232,549.218 C 74.2755,549.16657 31.654469,548.38014 24.80402,545.3952 Z m 404.30729,-23.14491 c 17.77378,-9.19118 17.1744,-3.83029 17.1744,-153.60972 0,-123.89852 -0.45305,-137.29909 -4.86971,-144.03978 -10.04886,-15.33647 -8.50129,-15.22396 -209.416,-15.22396 -204.943446,0 -200.293989,-0.38896 -211.401234,17.68521 -5.658372,9.20754 -5.79225,13.02166 -5.06256,144.22959 l 0.749508,134.77194 7.142857,7.68337 c 3.928572,4.22586 9.714286,8.74697 12.857143,10.04695 3.142857,1.29997 90.956706,2.44508 195.141886,2.54468 162.71706,0.15572 190.59177,-0.42088 197.68371,-4.08828 z"
       id="path4298"
       inkscape:connector-curvature="0"
       transform="scale(0.26458333)" />
    <path
       style="fill:#cccccc;stroke-width:2.85714293"
       d="m 218.58583,546.56837 -194.842747,-1.47726 -10.401025,-10 C 7.6214946,529.59111 1.2682111,521.87683 -0.77634943,517.94826 -5.5356054,508.80346 -9.1480434,327.44982 -5.8242917,264.52861 -3.575956,221.96587 -3.3593323,220.89452 5.1520903,210.2429 22.79676,188.16147 9.3918106,189.38624 233.47961,189.38127 l 200.05105,-0.004 10.37125,7.04744 c 5.70418,3.8761 13.39549,11.91181 17.0918,17.85714 l 6.72058,10.8097 0.84014,142.52641 0.84014,142.52639 -7.41034,11.19778 c -8.9768,13.56488 -31.17303,28.28934 -41.25789,27.36954 -4.01377,-0.36609 -94.977,-1.33037 -202.14051,-2.14286 z m 204.84274,-23.07446 c 0,-1.66417 1.25914,-2.24757 2.79809,-1.29642 4.82077,2.9794 13.6144,-3.75763 16.78814,-12.86183 1.98271,-5.6876 3.07317,-55.599 3.12686,-143.11893 0.0903,-147.00913 -0.088,-148.68 -16.33649,-153.22708 -4.29283,-1.20134 -94.59088,-2.18425 -200.66231,-2.18425 -146.13298,0 -194.324389,0.84133 -198.913291,3.47264 -3.33088,1.90995 -8.152309,7.88997 -10.714286,13.28894 -4.102617,8.64563 -4.65814,25.97564 -4.65814,145.31503 v 135.49873 l 6.428571,5.82215 c 3.535715,3.20217 9,7.24431 12.142857,8.98257 7.882595,4.35971 389.999999,4.66194 389.999999,0.30845 z"
       id="path4300"
       inkscape:connector-curvature="0"
       transform="scale(0.26458333)" />
  </g>
</svg>
