<svg xmlns="http://www.w3.org/2000/svg" viewBox="0 0 483.3 483.3" xmlns:v="https://vecta.io/nano"><path d="M424.3 57.75H59.1c-32.6 0-59.1 26.5-59.1 59.1v249.6c0 32.6 26.5 59.1 59.1 59.1h365.1c32.6 0 59.1-26.5 59.1-59.1v-249.5c.1-32.6-26.4-59.2-59-59.2zm32.1 308.7c0 17.7-14.4 32.1-32.1 32.1H59.1c-17.7 0-32.1-14.4-32.1-32.1v-249.5c0-17.7 14.4-32.1 32.1-32.1h365.1c17.7 0 32.1 14.4 32.1 32.1v249.5h.1zm-151.6-127.9l118.2-106c5.5-5 6-13.5 1-19.1-5-5.5-13.5-6-19.1-1l-163 146.3-31.8-28.4c-.1-.1-.2-.2-.2-.3-.7-.7-1.4-1.3-2.2-1.9L78.3 112.35c-5.6-5-14.1-4.5-19.1 1.1s-4.5 14.1 1.1 19.1l119.6 106.9-119.1 111.5c-5.4 5.1-5.7 13.6-.6 19.1 2.7 2.8 6.3 4.3 9.9 4.3a13.53 13.53 0 0 0 9.2-3.6l120.9-113.1 32.8 29.3a13.49 13.49 0 0 0 9 3.4c3.2 0 6.5-1.2 9-3.5l33.7-30.2 120.2 114.2c2.6 2.5 6 3.7 9.3 3.7 3.6 0 7.1-1.4 9.8-4.2 5.1-5.4 4.9-14-.5-19.1l-118.7-112.7z"/><path d="M40.67 421.52c-12.884-3.967-28.63-18.487-34.762-32.055l-4.886-10.812V241.445c0-135.187.064-137.345 4.312-146.528C11.64 81.293 21.26 71.37 34.442 64.898l11.635-5.714h391.145l10.734 4.853C460.35 69.64 471.633 81.22 477.9 94.77c4.333 9.37 4.377 10.845 4.377 146.674v137.208l-4.886 10.812c-6.4 14.137-21.82 28.076-35.62 32.174-15.148 4.498-386.46 4.4-401.1-.12zm399.616-26.594c3.938-2.314 9.237-7.288 11.775-11.054l4.615-6.848V242.988c0-149.4.564-143.26-14.08-153.2l-7.35-4.995H48.052l-7.35 4.995c-14.64 9.947-14.08 3.88-14.08 152.6 0 142.267-.2 139.115 9.894 148.26 10.5 9.5 8.35 9.418 208.205 8.948 185.963-.438 188.498-.498 195.566-4.65zm-378.85-25.488C56 364 56.27 358.704 62.343 351.676c2.75-3.184 30.323-29.288 61.27-58s56.053-53.143 55.8-54.27-23.6-22.783-51.882-48.125c-75.666-67.828-70.18-62.402-70.18-69.392 0-6.476 6.07-12.523 12.572-12.523 1.908 0 41.065 33.636 87.016 74.748l85.038 74.748c.82 0 38.324-33.088 83.344-73.528s83.744-74.128 86.055-74.86c9-2.857 17.622 8.278 13.313 17.196-.985 2.038-28.313 27.467-60.73 56.5s-58.616 53.773-58.222 54.958 27.38 27.6 59.964 58.68c62.4 59.545 65.085 62.915 57.034 71.812-6.53 7.215-12.565 4.926-29.254-11.098L284.736 256.804c-1 0-6.7 4.398-12.715 9.774-21.428 19.185-26.472 22.992-30.46 22.992-2.223 0-12.397-7.492-22.6-16.648l-18.568-16.648-7.525 7.057L82.42 365.858c-9.816 8.65-15.025 9.54-20.985 3.58z" fill="#ccc"/></svg>