<?xml version="1.0" encoding="UTF-8" standalone="no"?>
<!-- Created with Inkscape (http://www.inkscape.org/) -->

<svg
   xmlns:dc="http://purl.org/dc/elements/1.1/"
   xmlns:cc="http://creativecommons.org/ns#"
   xmlns:rdf="http://www.w3.org/1999/02/22-rdf-syntax-ns#"
   xmlns:svg="http://www.w3.org/2000/svg"
   xmlns="http://www.w3.org/2000/svg"
   xmlns:sodipodi="http://sodipodi.sourceforge.net/DTD/sodipodi-0.dtd"
   xmlns:inkscape="http://www.inkscape.org/namespaces/inkscape"
   width="210mm"
   height="297mm"
   viewBox="0 0 210 297"
   version="1.1"
   id="svg8"
   inkscape:version="0.92.5 (2060ec1f9f, 2020-04-08)"
   sodipodi:docname="envelope.svg">
  <defs
     id="defs2" />
  <sodipodi:namedview
     id="base"
     pagecolor="#ffffff"
     bordercolor="#666666"
     borderopacity="1.0"
     inkscape:pageopacity="0.0"
     inkscape:pageshadow="2"
     inkscape:zoom="0.35"
     inkscape:cx="400"
     inkscape:cy="560"
     inkscape:document-units="mm"
     inkscape:current-layer="layer1"
     showgrid="false"
     inkscape:window-width="1360"
     inkscape:window-height="719"
     inkscape:window-x="0"
     inkscape:window-y="120"
     inkscape:window-maximized="1" />
  <metadata
     id="metadata5">
    <rdf:RDF>
      <cc:Work
         rdf:about="">
        <dc:format>image/svg+xml</dc:format>
        <dc:type
           rdf:resource="http://purl.org/dc/dcmitype/StillImage" />
        <dc:title></dc:title>
      </cc:Work>
    </rdf:RDF>
  </metadata>
  <g
     inkscape:label="Layer 1"
     inkscape:groupmode="layer"
     id="layer1">
    <g
       id="g3777"
       transform="matrix(0.45540919,0,0,0.44339751,-240.82946,22.409538)">
      <g
         id="g3719">
	<g
   id="g3717">
		<path
   id="path3713"
   d="M 424.3,57.75 H 59.1 C 26.5,57.75 0,84.25 0,116.85 v 249.6 c 0,32.6 26.5,59.1 59.1,59.1 h 365.1 c 32.6,0 59.1,-26.5 59.1,-59.1 v -249.5 c 0.1,-32.6 -26.4,-59.2 -59,-59.2 z m 32.1,308.7 c 0,17.7 -14.4,32.1 -32.1,32.1 H 59.1 c -17.7,0 -32.1,-14.4 -32.1,-32.1 v -249.5 c 0,-17.7 14.4,-32.1 32.1,-32.1 h 365.1 c 17.7,0 32.1,14.4 32.1,32.1 v 249.5 z"
   inkscape:connector-curvature="0" />

		<path
   id="path3715"
   d="m 304.8,238.55 118.2,-106 c 5.5,-5 6,-13.5 1,-19.1 -5,-5.5 -13.5,-6 -19.1,-1 l -163,146.3 -31.8,-28.4 c -0.1,-0.1 -0.2,-0.2 -0.2,-0.3 -0.7,-0.7 -1.4,-1.3 -2.2,-1.9 L 78.3,112.35 c -5.6,-5 -14.1,-4.5 -19.1,1.1 -5,5.6 -4.5,14.1 1.1,19.1 l 119.6,106.9 -119.1,111.5 c -5.4,5.1 -5.7,13.6 -0.6,19.1 2.7,2.8 6.3,4.3 9.9,4.3 3.3,0 6.6,-1.2 9.2,-3.6 l 120.9,-113.1 32.8,29.3 c 2.6,2.3 5.8,3.4 9,3.4 3.2,0 6.5,-1.2 9,-3.5 l 33.7,-30.2 120.2,114.2 c 2.6,2.5 6,3.7 9.3,3.7 3.6,0 7.1,-1.4 9.8,-4.2 5.1,-5.4 4.9,-14 -0.5,-19.1 z"
   inkscape:connector-curvature="0" />

	</g>

</g>
      <g
         id="g3721">
</g>
      <g
         id="g3723">
</g>
      <g
         id="g3725">
</g>
      <g
         id="g3727">
</g>
      <g
         id="g3729">
</g>
      <g
         id="g3731">
</g>
      <g
         id="g3733">
</g>
      <g
         id="g3735">
</g>
      <g
         id="g3737">
</g>
      <g
         id="g3739">
</g>
      <g
         id="g3741">
</g>
      <g
         id="g3743">
</g>
      <g
         id="g3745">
</g>
      <g
         id="g3747">
</g>
      <g
         id="g3749">
</g>
    </g>
    <path
       style="stroke-width:2.85714293"
       d="m -842.27032,790.34343 c -18.37983,-6.45629 -35.93652,-19.38254 -47.23081,-34.77403 -19.50964,-26.58709 -18.71479,-14.53326 -17.85044,-270.69951 l 0.78014,-231.20735 7.95472,-15.09757 c 10.61271,-20.14228 27.67591,-36.69053 47.33682,-45.90825 l 16.13703,-7.56561 h 341.42857 341.42858 l 13.4778,6.2265 c 18.89617,8.72968 40.739481,30.16866 50.053224,49.12668 l 7.897543,16.0754 v 232.85714 232.85714 l -7.727228,15.73349 c -10.086515,20.53734 -28.411569,38.96017 -47.987059,48.24314 l -15.71428,7.45194 -338.57143,0.59592 c -302.1378,0.5318 -339.95333,0.11048 -351.41318,-3.91503 z m 678.82966,-39.45974 c 14.20803,-4.21932 27.98023,-15.78649 35.81212,-30.07829 3.195,-5.83034 4.06165,-46.51477 4.71637,-221.40877 0.53697,-143.44334 -0.20143,-218.94455 -2.23357,-228.42064 -3.7434,-17.45487 -13.95435,-31.28641 -28.62023,-38.76839 -10.94063,-5.58149 -17.29537,-5.68791 -339.64849,-5.68791 -225.15243,0 -331.02965,0.95604 -336.5424,3.0389 -11.43488,4.3204 -23.61057,16.51612 -29.76925,29.81824 -5.00355,10.80716 -5.29466,23.38047 -5.354,231.2408 -0.0623,218.22143 -0.0189,219.9028 5.99768,232.33137 6.54374,13.51757 22.09769,25.69883 37.46984,29.34494 5.12978,1.21675 152.12923,2.34386 326.66545,2.50472 271.73768,0.25028 319.37445,-0.31215 331.50648,-3.91497 z"
       id="path4043"
       inkscape:connector-curvature="0"
       transform="scale(0.26458333)" />
    <path
       style="stroke-width:2.85714293"
       d="m -842.27032,790.3492 c -17.99664,-6.32977 -35.34753,-18.94374 -46.93845,-34.12391 -19.72832,-25.8374 -18.97518,-14.56506 -18.12681,-271.30726 l 0.76415,-231.25549 6.99316,-14.2112 c 8.91702,-18.12081 26.88285,-36.08664 46.32826,-46.32826 L -838,185.09111 h 342.85714 342.85715 l 16.07011,7.89191 c 18.9516,9.30697 40.401971,31.16203 49.131971,50.05887 l 6.226486,13.4778 v 232.85714 232.85714 l -7.727228,15.73349 c -9.517458,19.37868 -27.659119,38.13485 -46.558489,48.13565 l -14.28571,7.55943 -340,0.60169 c -303.63675,0.53731 -341.37344,0.1186 -352.84175,-3.91503 z m 669.81138,-38.07006 c 19.00154,-3.1116 33.60637,-12.92708 43.03037,-28.91951 5.58257,-9.47354 5.71428,-14.8342 5.71428,-232.55423 V 267.94826 l -6.485,-12.13967 c -3.56677,-6.67682 -11.83011,-15.67682 -18.36302,-20 l -11.87798,-7.86033 h -334.9434 -334.94338 l -10.97932,8.87435 c -6.03863,4.88089 -13.55075,13.23803 -16.69361,18.57143 -5.55941,9.43424 -5.73686,15.62125 -6.54715,228.2685 -0.61049,160.21197 0.0586,221.80583 2.50602,230.68515 3.66415,13.29382 23.13564,33.74217 34.58654,36.32168 13.86827,3.12409 40.69956,3.43677 335.16888,3.90603 185.13942,0.29503 309.45308,-0.59751 319.82677,-2.29626 z"
       id="path4045"
       inkscape:connector-curvature="0"
       transform="scale(0.26458333)" />
    <path
       style="stroke-width:2.85714293;fill:#ffffff"
       d="m -841.15343,791.03911 c -16.50424,-5.1656 -36.45102,-19.61611 -48.05534,-34.81382 -19.72832,-25.8374 -18.97518,-14.56506 -18.12681,-271.30726 l 0.76415,-231.25549 6.99316,-14.2112 c 8.91702,-18.12081 26.88285,-36.08664 46.32826,-46.32826 L -838,185.09111 h 344.28571 344.28572 l 12.54868,6.69368 c 18.94032,10.10309 39.305747,30.69442 48.130833,48.66479 l 7.891914,16.07011 v 232.85714 232.85714 l -7.727228,15.73349 C -98.865914,758.90189 -117.04614,776.90657 -138,786.90591 l -17.14286,8.18069 -337.14285,-0.18886 c -266.11405,-0.14908 -339.61304,-0.96203 -348.86772,-3.85863 z m 686.55934,-43.77968 c 6.58755,-3.52072 15.58755,-11.13254 20,-16.91517 l 8.02266,-10.51389 2.31789,-114.51248 c 1.27483,-62.98186 1.69214,-165.02162 0.92737,-226.75501 l -1.39052,-112.24252 -7.33065,-12.50883 c -4.03189,-6.87986 -12.16349,-15.51358 -18.07023,-19.18605 l -10.73957,-6.67722 -330.01469,-0.76071 -330.0147,-0.7607 -12.80423,6.47499 c -7.52275,3.80419 -16.35554,11.58451 -21.41388,18.86233 l -8.60965,12.38734 v 221.89838 c 0,122.04411 0.98287,225.41051 2.18414,229.70311 2.4641,8.80511 16.95113,26.36317 26.06485,31.59014 10.01298,5.74275 77.15123,6.90889 380.32244,6.60595 l 288.57143,-0.28838 z"
       id="path4047"
       inkscape:connector-curvature="0"
       transform="scale(0.26458333)" />
    <path
       style="fill:#ffffff;stroke-width:2.85714293"
       d="m -906.91952,349.37683 c 0,-18.07143 0.46391,-25.46429 1.03092,-16.42857 0.567,9.03571 0.567,23.82143 0,32.85714 -0.56701,9.03571 -1.03092,1.64286 -1.03092,-16.42857 z"
       id="path4049"
       inkscape:connector-curvature="0"
       transform="scale(0.26458333)" />
    <path
       style="fill:#ffffff;stroke-width:2.85714293"
       d="m -204.33334,709.2964 c -3.48335,-1.38717 -52.34049,-45.15417 -108.57143,-97.26003 -56.23094,-52.10583 -103.78374,-95.3485 -105.67286,-96.09481 -1.88914,-0.74631 -17.63523,10.97131 -34.99134,26.03917 -24.82174,21.54921 -33.38957,27.3961 -40.14532,27.3961 -6.75754,0 -15.33725,-5.85877 -40.24044,-27.47869 l -31.65168,-27.47868 -9.05394,8.475 c -4.97966,4.66125 -53.099,48.52665 -106.93186,97.47868 -89.18202,81.0962 -98.76451,89.00369 -107.85714,89.00369 -18.45679,0 -28.24667,-20.09237 -16.40779,-33.67472 2.75,-3.15497 50,-46.594 105,-96.53114 55,-49.93713 100.33129,-91.56352 100.7362,-92.50309 0.40492,-0.93956 -46.28287,-42.61661 -103.75063,-92.61568 -57.46776,-49.99907 -105.8319,-93.85949 -107.47586,-97.4676 -6.71534,-14.73856 11.55531,-31.69994 27.59384,-25.61646 3.90695,1.48192 69.74649,57.33726 146.31008,124.12297 76.5636,66.78572 140.71311,121.81464 142.55451,122.2865 1.84137,0.47186 67.45314,-55.13528 145.80394,-123.57142 121.74797,-106.3418 143.73757,-124.42936 151.27249,-124.42936 14.78954,0 25.03437,15.3619 19.63263,29.43868 -0.88472,2.30546 -47.84923,44.49918 -104.36563,93.7638 -56.51637,49.26463 -102.39969,90.93428 -101.96289,92.59921 0.4368,1.66493 45.15132,43.92312 99.3656,93.90708 54.21429,49.98394 100.82143,93.46134 103.57143,96.6164 14.1854,16.27477 -2.90683,41.50123 -22.76191,33.5944 z"
       id="path4051"
       inkscape:connector-curvature="0"
       transform="scale(0.26458333)" />
  </g>
</svg>
