<svg xmlns="http://www.w3.org/2000/svg" viewBox="0 0 489.4 489.4" xmlns:v="https://vecta.io/nano"><path d="M347.7 263.75h-66.5c-18.2 0-33 14.8-33 33v51c0 18.2 14.8 33 33 33h66.5c18.2 0 33-14.8 33-33v-51c0-18.2-14.8-33-33-33zm9 84c0 5-4.1 9-9 9h-66.5c-5 0-9-4.1-9-9v-51c0-5 4.1-9 9-9h66.5c5 0 9 4.1 9 9v51zm132.7-176.7c0-2.1-.5-4.1-1.6-5.9l-72.8-128c-2.1-3.7-6.1-6.1-10.4-6.1H84.7c-4.3 0-8.3 2.3-10.4 6.1l-72.7 128c-1 1.8-1.6 3.8-1.6 5.9 0 28.7 17.3 53.3 42 64.2v211.1a12.04 12.04 0 0 0 12 12h381.3a12.04 12.04 0 0 0 12-12v-209.6c0-.5 0-.9-.1-1.3 24.8-10.9 42.2-35.6 42.2-64.4zM91.7 55.15h305.9l56.9 100.1H34.9l56.8-100.1zm256.6 124c-3.8 21.6-22.7 38-45.4 38s-41.6-16.4-45.4-38h90.8zm-116.3 0c-3.8 21.6-22.7 38-45.4 38s-41.6-16.4-45.5-38H232zm-207.2 0h90.9c-3.8 21.6-22.8 38-45.5 38-22.7.1-41.6-16.4-45.4-38zm176.8 255.2h-69v-129.5c0-9.4 7.6-17.1 17.1-17.1h34.9c9.4 0 17.1 7.6 17.1 17.1v129.5h-.1zm221.7 0H225.6v-129.5c0-22.6-18.4-41.1-41.1-41.1h-34.9c-22.6 0-41.1 18.4-41.1 41.1v129.6H66v-193.3c1.4.1 2.8.1 4.2.1 24.2 0 45.6-12.3 58.2-31 12.6 18.7 34 31 58.2 31s45.5-12.3 58.2-31c12.6 18.7 34 31 58.1 31 24.2 0 45.5-12.3 58.1-31 12.6 18.7 34 31 58.2 31 1.4 0 2.7-.1 4.1-.1v193.2zm-4.1-217.1c-22.7 0-41.6-16.4-45.4-38h90.9c-3.9 21.5-22.8 38-45.5 38z"/><path d="M46.807 453.8c-2.88-2.88-3.26-15.794-3.26-110.728v-107.47l-10.362-6.65C14.963 217.25 2.526 196.476 1.77 176.466c-.306-8.078 3.346-15.48 36.58-74.16C58.655 66.454 76.7 35.954 78.47 34.528c2.5-2.025 38.945-2.592 166.48-2.592 141.118 0 163.695.415 166.338 3.058 1.682 1.682 19.624 32.182 39.87 67.778 33.17 58.317 36.78 65.608 36.474 73.694-.755 19.947-13.302 40.94-31.527 52.75l-10.252 6.643v107.337c0 94.814-.38 107.717-3.26 110.595-2.916 2.916-23.718 3.26-197.893 3.26s-194.977-.343-197.893-3.26zm63.1-88.068c0-65.97.265-71.1 4.057-78.54 5.115-10.027 14.578-18.063 24.522-20.824 9.966-2.768 46.932-2.768 56.9 0 9.314 2.587 19.163 10.527 23.987 19.338 3.1 5.66 3.687 15.655 4.6 78.036L225 435.276h199.078v-194.93l-12.442-1.24c-16.03-1.6-29.48-8.1-41.06-19.843l-9.245-9.377-9.12 9.12c-14.878 14.878-26.148 19.27-49.448 19.27-23.353 0-33.873-4.14-48.682-19.162l-9.206-9.338-9.38 9.38c-15.02 15.02-25.497 19.12-48.862 19.12-23.274 0-34.57-4.393-49.38-19.2l-9.05-9.05-10.948 10.354c-13.025 12.318-22.716 16.898-39.493 18.663l-12.442 1.3-.54 95.392.453 97.984c.708 1.847 7.274 2.592 22.833 2.592h21.84zm92.28.42V297l-5.818-5.003c-5.413-4.655-7.462-5.003-29.435-5.003s-24.022.35-29.435 5.002l-5.818 5.002-.628 66.835c-.345 36.76-.133 68.125.473 69.702.888 2.315 7.8 2.758 35.88 2.3l34.78-.57zM84.307 215.48c15.036-4.465 31.82-22.5 31.82-34.17 0-1.406-15.643-2.14-45.622-2.14-52.017 0-50.722-.56-39.53 17.088C37.587 206.684 43.47 211.33 55.5 215.62c10.176 3.632 16.216 3.602 28.816-.14zm126.74-4.408c9.305-5.433 17.93-16.58 20.27-26.2l1.388-5.703H186.86c-52.2 0-50.935-.54-39.877 16.896 13.602 21.45 41.743 28.04 64.065 15.006zm116.243-.067c9.176-5.358 21.095-21.232 21.095-28.094 0-3.493-3.04-3.74-45.847-3.74H256.69l1.423 5.703c7.043 28.218 42.6 41.65 69.176 26.133zm113.63 1.723c9.246-4.74 15.46-11.033 20.24-20.495 6.8-13.476 8.15-13.064-42.494-13.064H372.82l1.393 5.703c3.24 13.26 16.96 26.987 31.747 31.754 8.44 2.72 25.832.782 34.96-3.898zm13.108-58.962c-.065-1.426-12.47-24.055-27.566-50.288l-27.45-47.696L90.207 54.9 63.25 102.793l-27.63 50.735c-.563 2.378 32.86 2.83 208.928 2.83l209.48-2.592zM268.343 376.452c-4.675-2.168-10.74-7.083-13.48-10.923-4.704-6.595-5-8.873-5.558-41.198-.548-32.388-.326-34.66 4.156-42.5 3.072-5.382 8-9.97 14.058-13.06 8.938-4.57 11.012-4.74 50.133-4.147 45.374.688 46.96 1.14 57.302 16.34 4.622 6.793 4.77 8.32 4.147 42.695-.706 38.92-1.38 41.246-14.918 51.363-5.257 3.93-9.032 4.32-46.53 4.83-36.457.495-41.717.134-49.3-3.387zm85.85-21.43c3.473-3.473 3.473-62.056 0-65.53-3.504-3.504-76.542-3.504-80.046 0-3.473 3.473-3.473 62.056 0 65.53 3.504 3.504 76.542 3.504 80.046 0z" fill="#ccc"/></svg>