<?xml version="1.0" encoding="UTF-8" standalone="no"?>
<!-- Created with Inkscape (http://www.inkscape.org/) -->

<svg
   xmlns:dc="http://purl.org/dc/elements/1.1/"
   xmlns:cc="http://creativecommons.org/ns#"
   xmlns:rdf="http://www.w3.org/1999/02/22-rdf-syntax-ns#"
   xmlns:svg="http://www.w3.org/2000/svg"
   xmlns="http://www.w3.org/2000/svg"
   xmlns:sodipodi="http://sodipodi.sourceforge.net/DTD/sodipodi-0.dtd"
   xmlns:inkscape="http://www.inkscape.org/namespaces/inkscape"
   width="210mm"
   height="297mm"
   viewBox="0 0 210 297"
   version="1.1"
   id="svg8"
   inkscape:version="0.92.5 (2060ec1f9f, 2020-04-08)"
   sodipodi:docname="stalker.svg">
  <defs
     id="defs2" />
  <sodipodi:namedview
     id="base"
     pagecolor="#ffffff"
     bordercolor="#666666"
     borderopacity="1.0"
     inkscape:pageopacity="0.0"
     inkscape:pageshadow="2"
     inkscape:zoom="0.35"
     inkscape:cx="400"
     inkscape:cy="560"
     inkscape:document-units="mm"
     inkscape:current-layer="layer1"
     showgrid="false"
     inkscape:window-width="1360"
     inkscape:window-height="719"
     inkscape:window-x="0"
     inkscape:window-y="120"
     inkscape:window-maximized="1" />
  <metadata
     id="metadata5">
    <rdf:RDF>
      <cc:Work
         rdf:about="">
        <dc:format>image/svg+xml</dc:format>
        <dc:type
           rdf:resource="http://purl.org/dc/dcmitype/StillImage" />
        <dc:title></dc:title>
      </cc:Work>
    </rdf:RDF>
  </metadata>
  <g
     inkscape:label="Layer 1"
     inkscape:groupmode="layer"
     id="layer1">
    <path
       style="fill:#cccccc;stroke-width:0.26458332"
       id="path65"
       d="m 115.64641,67.200337 c -2.00568,2.035945 -4.07799,3.99324 -6.3365,5.746248 -1.95532,1.618485 -4.10228,2.964201 -6.22476,4.345945 -2.18237,1.606902 -4.499179,3.015146 -6.719337,4.566203 -0.863949,0.587446 -1.632479,1.322493 -2.538852,1.849585 -3.461173,2.012813 -6.942658,3.990502 -10.416942,5.9806 -0.296526,0.169851 -1.19145,0.669933 -0.895421,0.499215 2.874549,-1.657717 5.754047,-3.306844 8.631068,-4.960268 -4.743133,3.177032 -9.864643,5.735035 -14.773751,8.634315 16.647199,-9.965404 7.811857,-4.451104 4.106256,-1.974088 -4.986438,3.961574 -10.711357,6.795045 -16.20979,9.972248 16.410905,-9.323082 7.319904,-4.494392 3.827248,-1.867241 -1.585434,1.159391 -3.114072,2.393221 -4.689274,3.565871 -1.804752,1.41098 -3.57605,2.87245 -5.258165,4.42838 -1.494766,1.44951 -2.981701,2.90936 -4.319775,4.50631 -1.313826,1.82201 -2.138172,3.94347 -3.134551,5.94809 -1.089617,1.98418 -1.755523,4.14363 -2.461635,6.28196 -0.586963,1.67406 -0.789477,3.42406 -0.886733,5.18381 -0.167359,1.82115 -0.04353,3.51093 0.908392,5.09758 1.219385,1.37904 2.893165,2.21268 4.590449,2.85158 2.021753,0.90463 4.205893,1.2965 6.343547,1.82332 1.883507,0.27179 3.714829,0.78606 5.593667,1.08512 1.645028,0.22878 3.308707,0.24299 4.966356,0.25849 1.847728,0.0148 3.695472,-7.9e-4 5.543209,0.003 2.040895,0.0311 4.018372,0.11375 5.982991,-0.48762 2.349883,-0.74947 4.740645,-1.35646 7.085999,-2.11984 2.948154,-0.70202 5.75087,-1.78617 8.579406,-2.84378 2.388465,-0.77989 4.837458,-1.3997 7.316138,-1.8194 2.00089,-0.26505 4.01954,-0.2926 6.03422,-0.30717 2.18284,-0.0659 4.34614,-0.42019 6.52867,-0.56004 2.42359,-0.12618 4.85221,-0.16129 7.27894,-0.17388 2.01202,-0.0168 4.02406,-0.009 6.03611,-0.0114 1.88201,0.005 3.76407,-0.004 5.64607,0.003 1.85251,-0.0778 3.65865,-0.0162 5.434,0.54486 1.91189,0.71863 2.96215,2.20477 3.7005,4.02788 0.57089,1.84433 0.97704,3.73164 1.20008,5.64824 0.18268,1.96167 0.27073,3.9351 0.14624,5.90193 -0.42069,2.40908 -1.56051,4.58789 -2.63005,6.75895 -0.82734,1.91455 -1.93034,3.65499 -3.22283,5.28334 -1.37567,1.79018 -2.89332,3.46547 -4.29166,5.23596 -1.08573,1.99997 -2.37343,3.80165 -3.95877,5.43287 -1.97237,1.75431 -3.83234,3.63037 -5.82962,5.35633 -3.8274,2.93733 -8.38279,5.07542 -12.48444,7.39505 -0.32566,0.18417 -0.67104,0.33148 -0.99981,0.51002 -0.31844,0.17293 -1.25555,0.72426 -0.94117,0.54406 2.86977,-1.64497 5.73822,-3.29223 8.60732,-4.93834 -5.15428,3.22137 -10.39399,6.3419 -15.85366,9.01717 -1.71766,0.98034 -3.57734,1.66846 -5.404744,2.41203 -0.293314,0.14713 -0.592423,0.28322 -0.879938,0.44138 -5.320188,2.92655 12.077372,-7.07237 6.936442,-3.90089 -0.30359,0.18728 -0.60617,0.37659 -0.91671,0.5521 -3.51497,1.9866 -7.039632,3.95601 -10.559447,5.93402 -2.524514,0.82824 -4.740682,2.30434 -7.138165,3.40168 -0.397306,0.19572 -0.80324,0.37481 -1.191921,0.58715 -6.143853,3.35635 11.999661,-6.94355 5.686586,-3.21515 -0.45462,0.26849 -0.908148,0.5389 -1.366335,0.80127 -3.583598,2.05202 -7.172621,4.09456 -10.758931,6.14183 -4.536477,2.67718 1.535252,-0.91381 6.881492,-3.91541 0.429376,-0.24107 -0.828686,0.53229 -1.248235,0.79008 -1.433587,0.88088 -2.889113,1.72741 -4.327163,2.60119 -2.759548,1.60981 -5.339882,3.47782 -7.889272,5.39472 -1.678117,1.24322 -3.455495,2.39273 -4.637121,4.14635 -0.759757,1.76617 -1.824829,3.36248 -2.764293,5.03063 -0.116631,0.24846 -0.233262,0.49692 -0.349893,0.74538 0,0 -10.143783,4.66618 -10.143783,4.66618 v 0 c 0.106762,-0.27849 0.213524,-0.55698 0.320283,-0.83548 0.852286,-1.72242 2.089396,-3.22302 2.762364,-5.03956 0.902824,-2.09233 2.708182,-3.3546 4.531272,-4.6371 2.615687,-1.87477 5.114642,-3.91475 7.923377,-5.51066 5.798267,-3.53145 11.622963,-7.02222 17.540157,-10.35521 -2.708888,1.57679 -5.418521,3.1523 -8.126669,4.73037 -0.452826,0.26386 0.908823,-0.5223 1.360707,-0.78778 0.437425,-0.25698 0.868678,-0.52441 1.307169,-0.77956 4.319754,-2.5136 8.611904,-5.26304 13.139338,-7.45906 2.364975,-1.20691 4.707003,-2.44778 7.183603,-3.4202 -2.839351,1.65931 -5.680794,3.31504 -8.518045,4.97793 -0.590539,0.34611 1.179325,-0.69521 1.76983,-1.04138 3.953631,-2.31771 7.940975,-5.07241 12.230055,-6.94151 1.80573,-0.74154 3.60323,-1.50586 5.31393,-2.45168 1.16519,-0.60375 0.95971,-0.49355 2.15015,-1.12613 0.37069,-0.19699 1.47281,-0.80588 1.11098,-0.59303 -15.26299,8.97847 -9.70471,5.74393 -6.44462,3.65965 3.47231,-2.02204 6.93832,-4.05493 10.41693,-6.06612 0.63504,-0.36716 2.58062,-1.39476 1.9495,-1.02089 -2.8146,1.66737 -5.65257,3.29499 -8.47733,4.9451 -0.68214,0.39847 2.72193,-1.54972 2.01781,-1.24305 2.06724,-1.64189 3.86656,-3.56544 5.87189,-5.27889 1.64812,-1.50832 3.08665,-3.18236 4.00277,-5.2431 1.25283,-1.88465 2.9487,-3.43004 4.24262,-5.29341 1.33373,-1.54397 2.55763,-3.17082 3.3464,-5.07112 1.08239,-2.04655 2.13723,-4.13004 2.79405,-6.35775 0.19797,-1.8944 0.0564,-3.80635 -0.0597,-5.7038 -0.19453,-1.82808 -0.55096,-3.6194 -1.07734,-5.3825 -0.58361,-1.55431 -1.4823,-2.69327 -3.15587,-3.13522 -1.73238,-0.3693 -3.48117,-0.35485 -5.24671,-0.32116 -1.88267,0.006 -3.76538,-0.004 -5.64805,-0.003 -2.0002,-0.006 -4.00043,-0.006 -6.00063,-0.003 -2.40935,0.0229 -4.8208,0.0368 -7.22429,0.22758 -2.20071,0.19184 -4.39397,0.53942 -6.60691,0.53023 -1.974725,0.0341 -3.957814,0.0956 -5.90664,0.44494 -2.418082,0.47124 -4.816244,1.08448 -7.131558,1.93148 -2.843,1.08758 -5.741579,1.9675 -8.660717,2.82691 -2.362081,0.71602 -4.738949,1.38252 -7.114463,2.05201 -2.051558,0.39063 -4.111067,0.3337 -6.194097,0.31411 -1.855491,0.009 -3.71126,0.009 -5.566658,-0.009 -1.697871,-0.0356 -3.402243,-0.0773 -5.075209,-0.40135 -1.875951,-0.36805 -3.736522,-0.81237 -5.614953,-1.16787 -2.162741,-0.56161 -4.358642,-1.02116 -6.39895,-1.96717 -1.892329,-0.8086 -3.771514,-1.74752 -5.023824,-3.44287 -1.021559,-1.7707 -1.42253,-3.61902 -1.216192,-5.66527 0.07554,-1.84675 0.182269,-3.69888 0.778574,-5.46638 0.717386,-2.18028 1.378865,-4.39601 2.41635,-6.45107 1.068257,-2.0214 1.928299,-4.13336 3.00347,-6.14829 1.320803,-1.652 2.769275,-3.17497 4.291288,-4.64552 1.649656,-1.60821 3.429222,-3.06652 5.20206,-4.53696 1.547892,-1.20307 3.095553,-2.40757 4.692211,-3.54713 4.579109,-3.76743 10.262528,-5.844027 15.107189,-9.233361 3.454114,-1.976212 4.912871,-2.814121 -7.104089,4.135422 -0.392694,0.227102 0.787427,-0.451406 1.169379,-0.696145 1.12477,-0.720704 2.180979,-1.544561 3.2223,-2.378813 4.657492,-3.462502 10.075878,-5.892372 14.867199,-9.091772 3.429905,-1.867754 8.720614,-4.86733 -6.802511,4.054933 -0.285872,0.164309 0.545221,-0.371123 0.822915,-0.548904 1.59871,-1.023509 0.118784,-0.0043 1.717471,-1.135396 3.471603,-2.011961 6.939177,-4.030888 10.414807,-6.035879 0.297928,-0.171865 1.202465,-0.668253 0.905608,-0.494543 -2.878379,1.684324 -5.770301,3.345412 -8.650515,5.026588 -0.277458,0.161952 0.569957,-0.298066 0.842086,-0.46882 0.712113,-0.446829 1.106395,-0.79465 1.768203,-1.323764 2.198317,-1.624568 4.58579,-2.95775 6.757016,-4.621215 2.071164,-1.42295 4.280731,-2.641134 6.206083,-4.268229 2.267937,-1.6788 4.441757,-3.469849 6.330457,-5.579507 0,0 10.30877,-4.270033 10.30877,-4.270033 z"
       inkscape:connector-curvature="0" />
    <path
       style="fill:#cccccc;stroke-width:0.26458332"
       id="path67"
       d="m 105.69316,74.91822 c 2.32574,-1.48045 4.31843,-3.388191 5.81061,-5.701371 0.66999,-1.333768 0.37932,-0.668581 0.88287,-1.990786 0,0 10.07216,-4.714243 10.07216,-4.714243 v 0 c -0.46801,1.470234 -0.19365,0.729485 -0.83375,2.218259 -1.35687,2.433336 -3.22387,4.477083 -5.49502,6.10449 0,0 -10.43687,4.083651 -10.43687,4.083651 z"
       inkscape:connector-curvature="0" />
    <path
       style="fill:#cccccc;stroke-width:0.26458332"
       id="path69"
       d="m 99.496823,181.60065 c -0.07306,2.52661 0.633257,4.94244 1.288777,7.35168 0.58241,1.96012 0.78337,3.99095 0.90209,6.02286 0.067,1.90098 0.0553,3.80313 0.051,5.70484 -2e-5,1.87346 -0.01,3.74681 -0.005,5.62028 -0.0135,1.83011 -0.002,3.66029 0.004,5.49041 0.0379,1.65936 -0.0671,3.3217 0.06,4.97731 0.0591,0.1938 0.11819,0.38761 0.17728,0.58141 0,0 -9.814787,5.38142 -9.814787,5.38142 v 0 c -0.08441,-0.26529 -0.168823,-0.53058 -0.253235,-0.79586 -0.209669,-1.68254 -0.101526,-3.38058 -0.120979,-5.07366 0.0062,-1.83245 0.01812,-3.66495 0.0071,-5.4974 0.0078,-1.87556 0.0034,-3.75107 0.01466,-5.6266 0.004,-1.88336 0.01677,-3.76746 -0.03532,-5.65025 -0.0727,-1.96826 -0.225917,-3.93631 -0.736632,-5.84753 -0.630383,-2.49326 -1.332068,-4.96558 -1.544497,-7.54083 0,0 10.005552,-5.09808 10.005552,-5.09808 z"
       inkscape:connector-curvature="0" />
    <path
       style="fill:#cccccc;stroke-width:0.26458332"
       id="path71"
       d="m 117.43507,198.48573 c -1.65309,1.90016 -3.34051,3.76534 -4.84474,5.78779 -1.0821,1.48144 -1.61638,3.14963 -1.66612,4.96912 0.28032,1.95378 1.45129,3.66948 2.60569,5.22359 1.1312,1.42183 2.29191,2.935 4.2598,2.81508 3.40496,-1.63939 8.28491,-4.15509 -7.6678,4.3676 -0.24279,0.12971 0.4148,-0.36599 0.58743,-0.5804 0.48047,-0.59676 0.54871,-0.90679 0.83985,-1.60977 0.47832,-1.7285 0.73942,-3.50872 1.15093,-5.25476 0.54447,-1.59817 1.37888,-3.09129 2.15927,-4.5871 5.93724,-10.08779 9.85726,-8.58616 11.5939,-3.25104 0.63001,1.55761 1.31067,3.09962 1.79395,4.71012 0.70586,1.7891 0.97657,3.6786 1.33996,5.55185 0,0 -9.82774,5.25766 -9.82774,5.25766 v 0 c -0.38664,-1.83279 -0.5668,-3.713 -1.30279,-5.46011 -0.46698,-1.59647 -1.14433,-3.12638 -1.80411,-4.65108 -0.14179,-0.39422 -0.24768,-0.80118 -0.3996,-1.19161 -0.0418,-0.10746 -0.0826,-0.22235 -0.16272,-0.30529 -0.0224,-0.0232 -0.10877,0.0693 -0.0809,0.0531 9.50779,-5.51298 12.46954,-7.52749 9.09506,-5.24571 -0.94209,1.33078 -1.50628,2.90611 -2.32332,4.31243 -0.53333,1.74168 -0.76251,3.56142 -1.14112,5.33959 -0.19304,0.66069 -0.35382,1.32377 -0.66596,1.9436 -2.14832,4.26593 -7.60355,6.89254 -12.30182,7.07819 -2.08303,-0.50595 -3.44974,-1.94867 -4.70106,-3.63531 -1.27056,-1.76282 -2.56224,-3.62986 -2.98002,-5.79978 -0.10431,-2.00641 0.317,-3.92434 1.41249,-5.63365 1.41936,-2.05508 3.09589,-3.89578 4.71173,-5.79515 0,0 10.31973,-4.40898 10.31973,-4.40898 z"
       inkscape:connector-curvature="0" />
    <path
       style="fill:#cccccc;stroke-width:0.26458332"
       id="path73"
       d="m 139.55415,191.52261 c -0.0735,2.26912 -0.0562,4.54014 -0.0417,6.81008 0.003,2.03957 0.008,4.07908 0.0101,6.11864 -0.0774,1.87194 0.0494,3.71519 0.3127,5.56622 0.14407,1.92173 0.55809,3.80221 0.83821,5.7052 0.18314,1.20469 0.23454,2.42179 0.32254,3.63532 0,0 -9.93697,5.12385 -9.93697,5.12385 v 0 c -0.0292,-1.19001 -0.094,-2.37942 -0.24085,-3.5615 -0.25978,-1.90626 -0.71398,-3.77839 -0.84979,-5.70105 -0.26257,-1.8996 -0.4988,-3.78635 -0.37196,-5.71043 0.002,-2.043 0.007,-4.08596 0.0101,-6.12898 0.0143,-2.25576 0.0326,-4.51266 -0.0417,-6.76758 0,0 9.98925,-5.08977 9.98925,-5.08977 z"
       inkscape:connector-curvature="0" />
    <path
       style="fill:#cccccc;stroke-width:0.26458332"
       id="path75"
       d="m 132.85716,209.49041 c 1.68433,-1.54625 3.12035,-3.31586 4.29919,-5.27004 0.97939,-1.91505 1.98986,-3.78372 3.19967,-5.56375 1.16984,-1.72224 2.26865,-3.48407 3.54741,-5.12918 1.38602,-1.78484 3.14045,-3.24409 4.47126,-5.06998 0,0 10.19116,-4.49009 10.19116,-4.49009 v 0 c -1.11018,2.0184 -2.96969,3.42409 -4.42257,5.18925 -1.3326,1.5959 -2.46611,3.3145 -3.6045,5.0503 -1.18558,1.77714 -2.36781,3.52521 -3.24033,5.48817 -1.08367,2.03317 -2.43863,3.88557 -4.0847,5.50548 0,0 -10.35659,4.28984 -10.35659,4.28984 z"
       inkscape:connector-curvature="0" />
    <path
       style="fill:#cccccc;stroke-width:0.26458332"
       id="path77"
       d="m 147.35017,203.05331 c 1.77963,2.19018 3.1173,4.69128 4.7088,7.01667 1.32706,1.75257 2.28789,3.62869 3.00297,5.69308 0.47139,1.16358 0.19167,0.60478 0.83844,1.67677 0,0 -9.62808,5.58736 -9.62808,5.58736 v 0 c -0.75426,-1.23481 -0.43768,-0.60676 -0.96467,-1.87654 -0.68406,-1.96903 -1.53731,-3.79259 -2.78992,-5.48263 -1.52078,-2.28553 -2.7741,-4.80018 -4.72554,-6.75756 0,0 9.558,-5.85715 9.558,-5.85715 z"
       inkscape:connector-curvature="0" />
    <path
       style="fill:#cccccc;stroke-width:0.26458332"
       id="path79"
       d="m 154.36105,210.03003 c -1.13718,-2.35533 -1.84989,-2.97585 -4.43315,-3.10608 -0.35543,0.0463 -0.71589,0.0633 -1.06628,0.13876 -0.71583,0.15413 -1.37782,0.42751 -2.02148,0.77092 -0.32006,0.17076 -1.24635,0.74284 -0.93024,0.56486 8.8355,-4.97465 11.15811,-7.1809 7.98567,-4.2952 -0.15022,0.23049 -0.34603,0.43702 -0.45065,0.69147 -0.52312,1.27233 0.58978,3.6252 1.068,4.82372 0.88457,1.9689 2.4035,3.49099 4.2638,4.53936 1.82443,0.76433 3.64003,1.56541 5.39519,2.47941 1.76863,0.85775 3.68183,1.23213 5.62238,1.41583 0.70086,0.0406 0.90234,0.10914 1.58219,-0.0682 0.25046,-0.0653 0.95198,-0.40063 0.72714,-0.27242 -9.73512,5.55096 -11.42297,6.99387 -8.13389,4.31961 0,0 10.28589,-4.28372 10.28589,-4.28372 v 0 c -3.12964,4.07328 -8.40568,7.40905 -13.5719,6.75569 -2.01593,-0.30156 -3.98072,-0.83053 -5.81042,-1.75214 -1.80194,-0.8746 -3.64903,-1.65516 -5.43569,-2.56086 -1.97112,-1.28617 -3.6528,-2.9794 -4.63035,-5.15228 -0.60557,-1.50751 -1.7362,-4.00556 -1.51585,-5.62961 0.0461,-0.34008 0.23019,-0.64663 0.34529,-0.96995 2.87973,-4.1402 0.45859,-0.91646 10.94008,-7.00313 1.33431,-0.77484 2.90071,-1.02619 4.41949,-0.93842 2.69555,0.48349 3.80096,1.63117 5.11203,3.9824 0,0 -9.74725,5.54993 -9.74725,5.54993 z"
       inkscape:connector-curvature="0" />
    <path
       style="fill:#cccccc;stroke-width:0.26458332"
       id="path81"
       d="m 174.98793,196.88321 c -0.77906,2.1019 -0.72666,4.3945 -0.75343,6.60578 -0.0466,2.17609 0.33557,4.32991 0.57386,6.4865 0.19054,1.71007 0.72244,3.30537 1.32786,4.90043 0.71634,1.79398 0.955,3.69442 1.10359,5.60399 0,0 -9.90012,5.12962 -9.90012,5.12962 v 0 c -0.10521,-1.80347 -0.28761,-3.60759 -0.94723,-5.30726 -0.66342,-1.68419 -1.25035,-3.35277 -1.4613,-5.16822 -0.20173,-2.20665 -0.60638,-4.40355 -0.57506,-6.62294 0.0135,-2.28264 -0.0695,-4.62725 0.47283,-6.85685 0,0 10.159,-4.77105 10.159,-4.77105 z"
       inkscape:connector-curvature="0" />
    <path
       style="fill:#cccccc;stroke-width:0.26458332"
       id="path83"
       d="m 167.40406,215.01248 c 0.26973,-2.2795 0.70357,-4.45749 1.66413,-6.55005 1.0128,-1.89057 2.37341,-3.5726 3.99418,-4.97144 3.90909,-2.26971 9.41466,-7.65656 14.86115,-6.14289 2.05253,0.74448 3.38761,2.27605 4.54543,4.05142 1.08546,1.59688 1.81467,3.33973 1.98333,5.26301 -0.0255,1.27244 0.0239,0.63453 -0.15124,1.91348 0,0 -10.03002,4.88156 -10.03002,4.88156 v 0 c 0.2663,-1.10415 0.17929,-0.54373 0.25986,-1.68144 0.008,-1.74416 -0.72331,-3.31882 -1.67611,-4.7564 -1.0104,-1.55131 -2.21136,-2.85634 -4.08953,-3.28798 -1.14219,-0.12184 -2.23283,-0.0147 -3.31599,0.40546 -0.27339,0.10606 -1.04572,0.52916 -0.79401,0.37874 2.90891,-1.73834 5.84573,-3.42952 8.7686,-5.14427 -1.76386,1.13426 -3.08936,2.76945 -4.22923,4.51546 -1.08186,1.9366 -1.67418,3.95907 -1.70353,6.19385 0,0 -10.08702,4.93149 -10.08702,4.93149 z"
       inkscape:connector-curvature="0" />
    <path
       style="fill:#cccccc;stroke-width:0.26458332"
       id="path85"
       d="m 47.738604,139.92057 c -1.332514,-1.90949 -2.6283,-3.80791 -3.458382,-5.99368 -0.823209,-1.94202 -1.240031,-3.98037 -1.475095,-6.06487 -0.177125,-2.22715 0.50478,-4.24755 1.379016,-6.2528 0.845506,-2.07793 2.107055,-3.928 3.336058,-5.78937 1.031806,-1.69996 2.453335,-3.05164 3.917674,-4.36786 4.574572,-3.68543 9.981999,-6.18427 15.201665,-8.84379 2.227945,-1.04267 4.473379,-2.04249 6.781241,-2.895442 2.452365,-0.647999 4.545388,-2.093111 6.82099,-3.142189 0.297667,-0.154882 0.595376,-0.309679 0.893001,-0.464643 0.627097,-0.326507 2.466133,-1.384104 1.852194,-1.033481 -15.062612,8.602335 -10.103567,6.000995 -6.849131,3.736641 1.580801,-1.080957 3.217836,-2.064467 4.739741,-3.229424 1.665232,-1.22912 3.305386,-2.494206 4.979537,-3.710953 4.012039,-2.54666 8.226782,-4.805231 12.334552,-7.16107 0.300234,-0.172186 1.202653,-0.685723 0.902661,-0.51312 -9.032767,5.197134 -11.431916,6.767698 -7.796721,4.419624 1.65072,-1.235832 3.364654,-2.382221 5.045607,-3.575444 1.760183,-1.303957 3.633436,-2.433098 5.480038,-3.605599 1.72046,-1.29626 3.6233,-2.306111 5.42467,-3.476879 1.9556,-1.250172 3.76808,-2.689627 5.50473,-4.224644 1.79078,-1.599306 3.42232,-3.380121 4.70721,-5.41074 0.1646,-0.323871 0.3292,-0.647745 0.49379,-0.971616 0,0 10.11197,-4.604163 10.11197,-4.604163 v 0 c -0.15582,0.35723 -0.31163,0.71446 -0.46744,1.071687 -1.18597,2.166268 -2.76646,4.057073 -4.58755,5.726991 -1.69911,1.566931 -3.43432,3.100578 -5.39474,4.339849 -1.76351,1.275088 -3.73982,2.182014 -5.46201,3.516654 -1.80523,1.221375 -3.70134,2.273107 -5.475,3.543911 -1.64882,1.235964 -3.40751,2.315906 -5.01862,3.601043 -4.063243,2.938632 -0.71757,0.561001 -11.224612,6.641679 -0.298648,0.172836 -1.204756,0.673317 -0.906793,0.499298 2.856193,-1.668098 5.717794,-3.326942 8.58175,-4.981681 0.632531,-0.365466 -2.47668,1.489713 -1.894097,1.102437 -1.74666,1.098957 -3.257692,2.50925 -4.999127,3.622304 -1.48386,1.243783 -3.077385,2.294941 -4.71664,3.318029 -0.592984,0.388583 -1.13171,0.859038 -1.740267,1.222748 -4.337677,2.592443 -8.658892,5.312213 -13.215313,7.537373 -2.235446,1.13064 -4.442288,2.31355 -6.852404,3.04842 -2.277507,0.90533 -4.516149,1.90234 -6.717266,2.98071 -3.606651,1.75622 -8.769244,4.94038 6.338337,-3.89352 0.863198,-0.50474 -1.08558,0.58365 -1.805696,1.06187 -0.256956,0.17065 -0.501132,0.35979 -0.751697,0.53969 -1.439024,1.28289 -2.977909,2.4784 -4.036529,4.11839 -1.241385,1.80669 -2.550673,3.59329 -3.422411,5.61678 -0.841352,1.84466 -1.698035,3.63473 -1.613369,5.72358 0.175123,2.00188 0.529072,3.96642 1.310479,5.83212 0.752589,2.09579 1.955234,3.91882 3.376724,5.62785 0,0 -9.632725,5.7573 -9.632725,5.7573 z"
       inkscape:connector-curvature="0" />
    <path
       style="fill:#cccccc;stroke-width:0.26458332"
       id="path87"
       d="m 58.172479,132.99702 c 2.097021,0.64476 4.272814,0.92855 6.452031,1.10275 1.997506,0.15058 3.96635,0.53979 5.964918,0.72181 2.1699,0.19883 4.358145,0.46838 6.434888,1.14835 1.760324,0.6356 3.436745,1.41352 5.280777,1.78594 1.487328,0.54157 3.036628,0.79192 4.607385,0.91048 1.801765,0.0995 3.607342,0.0979 5.411287,0.0967 1.841773,-0.072 3.707241,0.15365 5.530477,-0.14841 1.736389,-0.55609 3.430098,-1.17911 5.069908,-1.97953 0.85866,-0.37897 1.17063,-0.49247 1.98834,-0.94885 0.31331,-0.17487 1.23284,-0.73473 0.92148,-0.55641 -15.586956,8.92673 -9.801619,5.9901 -6.739356,3.71162 1.252036,-1.21583 0.860624,-0.86791 -0.448725,-1.01828 -1.763049,-0.1407 -3.534124,-0.1045 -5.301126,-0.10363 -1.915488,0.0155 -3.831,0.017 -5.746525,0.0239 -1.977519,-0.12843 -3.911827,0.14112 -5.864778,0.39852 -1.834814,0.26235 -3.686905,0.3105 -5.536721,0.34918 -1.708078,-0.0652 -3.249842,0.75179 -4.884039,1.1431 -1.907217,0.40229 -3.785441,0.32295 -5.701262,0.10363 -2.131838,-0.1209 -4.214879,-0.51273 -6.31838,-0.84362 -1.927418,-0.35621 -3.725169,-0.96077 -5.51783,-1.72905 -1.882963,-0.80319 -3.200042,-2.18942 -4.416216,-3.77833 -3.495029,-4.68174 3.933611,-11.09515 9.834589,-7.84666 1.731246,0.54086 3.307498,1.32024 4.813496,2.33253 1.946159,1.24926 3.724055,2.72671 5.443567,4.26646 1.491458,1.26975 3.108102,2.36735 4.676124,3.53552 1.347729,1.20011 2.7164,2.23922 4.455358,2.76698 1.726615,0.34043 3.495445,0.33136 5.247899,0.3409 1.873753,-0.005 3.747482,-0.0134 5.621213,-0.0244 1.244584,-0.0715 2.525718,0.15925 3.751718,-0.14099 0.564692,-0.13828 1.101772,-0.37162 1.65337,-0.55531 1.644404,-0.58 3.375271,-0.69147 5.100175,-0.78055 1.828119,-0.38047 3.685719,-0.59728 5.548709,-0.70108 1.90414,-0.10048 3.81116,-0.0951 5.71724,-0.10153 1.88425,0.004 3.76856,-0.002 5.65281,0.006 1.89654,-0.003 3.79307,0.003 5.68961,5.3e-4 1.88312,0.004 3.76628,-0.005 5.64939,0.001 1.89662,-0.004 3.79321,0.002 5.68983,-0.001 2.09977,0.18731 3.87692,1.26861 5.46083,2.58556 1.54054,1.38383 2.32653,3.17205 2.82802,5.13709 0.56137,2.33075 -0.35661,4.54139 -1.01707,6.74275 -0.51047,1.93563 -0.82816,3.90769 -1.53055,5.78777 -0.65514,1.71755 -1.41322,3.3554 -2.45215,4.87381 -1.10247,1.65135 -2.35225,3.19261 -3.56094,4.76522 -1.42783,1.75561 -2.53542,3.73298 -3.85874,5.56489 -1.62949,1.77974 -3.64995,3.15589 -5.46951,4.74202 -0.78328,0.3055 -1.10777,1.29898 -1.72118,1.77512 -0.29478,0.22881 0.009,-1.22064 -0.33167,-1.06924 -3.20471,1.42252 -6.11188,3.43803 -9.16782,5.15704 1.4044,-1.58323 1.94072,-3.79292 2.3978,-5.8155 0.49105,-2.15867 0.92542,-4.31623 1.70503,-6.39237 0.73399,-1.90598 1.70512,-3.71564 2.82753,-5.41939 1.11923,-1.40265 2.45125,-2.60226 3.57309,-4.00454 0.93032,-1.29016 1.27415,-2.86481 1.88392,-4.31358 0.70174,-1.52485 0.89886,-3.17462 1.02005,-4.82845 0.0515,-1.70707 0.38533,-3.53436 -0.51546,-5.06739 -1.18283,-1.02366 -2.67042,-1.76694 -4.13193,-2.32808 -1.55355,-0.82575 -3.2719,-1.08128 -4.99892,-1.24422 -1.62717,-0.11964 -3.25984,-0.0992 -4.89012,-0.10595 -1.82155,0.006 -3.64309,0.004 -5.46464,0.008 -1.9022,0.0366 -3.80963,-0.0998 -5.70142,0.12391 -2.279245,0.19933 -4.521735,0.62322 -6.784409,0.94156 -2.112327,0.31223 -4.244814,0.38986 -6.376027,0.4383 -1.717357,0.0271 -3.405206,-0.3943 -5.11129,-0.57615 -1.574183,-0.11161 -3.164757,-0.0467 -4.657,-0.6319 -3.381184,-4.57289 7.300217,-6.52473 11.589962,-7.26366 1.613376,-0.22668 3.245699,-0.22364 4.865143,-0.37496 0.05025,-0.0168 0.194122,-0.0809 0.150754,-0.0504 -10.032865,7.04434 -6.159942,6.67636 -12.523489,6.63688 -1.886381,0.002 -3.772751,-0.002 -5.659133,0.001 -2.096127,0.26766 -3.886631,-0.45086 -5.789403,-1.18199 -1.89533,-0.89678 -3.860771,-1.63157 -5.720718,-2.60095 -1.679535,-1.08677 -3.356139,-2.1743 -5.052036,-3.23632 -1.639488,-1.48264 -3.439789,-2.7914 -5.36797,-3.87132 -2.188056,-1.01826 -3.627408,-2.62847 -4.68953,-4.75334 -0.857554,-2.18791 -0.257617,-4.22021 0.566068,-6.29471 0.772245,-1.87708 1.335953,-3.82639 1.891268,-5.77522 0.517636,-2.39669 1.350634,-4.6542 2.580428,-6.77148 3.143748,-4.88671 8.775121,-7.24242 13.968807,-9.588387 1.17234,-0.584806 2.497272,-0.608269 3.722907,-1.006869 0.614328,-0.199792 1.208106,-0.458208 1.816439,-0.675574 1.688962,-0.676854 3.255565,-1.628955 4.95477,-2.271598 0.304199,-0.09219 0.61215,-0.172792 0.912593,-0.276561 0.63015,-0.217644 1.140618,-0.440849 1.723644,-0.765054 0.279952,-0.155673 1.097536,-0.660902 0.819073,-0.502581 -8.488323,4.826098 -11.551433,6.827623 -7.898506,4.465024 1.745472,-1.1062 3.370427,-2.390953 5.00089,-3.657476 1.654736,-1.39006 3.300833,-2.779104 5.104698,-3.973557 1.821376,-1.018149 3.498379,-2.24173 5.089361,-3.585544 1.726997,-1.698633 3.603554,-3.198746 5.544717,-4.640903 1.743147,-1.38335 3.488005,-2.753611 5.348869,-3.976269 1.96422,-1.317183 4.01714,-2.509647 5.91112,-3.927499 3.72538,-3.220876 2.63403,-1.956797 11.53807,-5.16491 0.20281,-0.07307 -0.27072,0.335868 -0.4156,0.495501 -0.18856,0.207772 -0.38942,0.404046 -0.58413,0.606068 -1.72344,1.818566 -3.56715,3.507883 -5.45071,5.157171 -1.63997,1.50069 -3.3155,2.950689 -5.15405,4.203007 -4.83776,2.886416 -9.47991,6.233755 -14.675247,8.433641 -3.430038,1.773103 -8.554379,4.700664 7.137262,-4.153249 0.276847,-0.15621 -0.53082,0.34994 -0.793046,0.529614 -1.589469,1.089083 0.09967,-0.02508 -1.615416,1.091467 -4.185489,2.512533 -8.462082,4.86964 -12.693571,7.30355 -1.495555,0.860227 -2.572149,1.449777 -2.417151,1.360054 2.740197,-1.586212 5.488702,-3.158027 8.23305,-4.737039 -16.546494,9.399203 -6.332543,4.182636 -11.940654,6.593734 -1.278731,0.549767 -1.010615,0.429892 -2.226804,1.136539 -0.388798,0.225903 -1.553914,0.905764 -1.163413,0.682818 2.770762,-1.581878 5.536176,-3.173106 8.304263,-4.759659 -2.329786,1.395318 -4.587288,2.893179 -6.800631,4.46463 -1.951468,1.245372 -3.628543,2.849401 -5.482402,4.223091 -1.828755,1.18914 -3.534328,2.56586 -5.140777,4.03906 -1.533602,1.46891 -2.750571,3.21281 -3.859107,5.01268 -0.958141,1.56711 -1.179721,3.36284 -1.324988,5.154 -0.08771,1.87716 -0.07454,3.75769 -0.06272,5.63639 0.06262,1.38995 -0.09943,3.23512 1.037325,4.24473 0.663154,-0.0299 0.344308,0.0752 0.930421,-0.38563 -3.003775,1.65654 -5.979195,3.36558 -9.011322,4.96964 -0.249365,0.13192 0.457184,-0.33675 0.647485,-0.545 0.526273,-0.57592 0.629936,-0.94438 0.954442,-1.64475 0.672762,-1.9282 1.026002,-3.94282 1.533629,-5.91611 0.644945,-1.88106 1.52374,-3.67001 2.248154,-5.52013 0.672803,-1.69798 1.32435,-3.40717 2.081389,-5.06962 1.051719,-1.7754 1.771804,-3.70972 2.773897,-5.50987 1.089687,-1.79323 2.277155,-3.49076 3.740153,-4.9963 1.753899,-1.745938 3.878003,-3.019536 5.956395,-4.329544 3.868473,-2.582381 7.71789,-5.514073 12.02885,-7.205398 0.53935,-0.211603 0.644575,0.999739 0.745069,1.570331 0.02905,0.16496 -0.279918,0.184039 -0.419878,0.276059 -1.589145,1.120354 -2.696067,2.743988 -3.815024,4.300593 -1.311828,1.621837 -2.336972,3.427658 -3.294295,5.271939 -0.888775,1.7228 -2.088955,3.23893 -3.48401,4.57445 -1.364289,1.21188 -2.698067,2.45649 -4.227002,3.45982 -0.109447,0.0677 -0.202229,0.22848 -0.328342,0.20296 -0.134985,-0.0273 -0.348409,-0.74066 -0.313714,-0.91502 0.03233,-0.16246 0.801608,-0.65775 0.826164,-0.67501 -2.969009,1.6977 -5.938015,3.3954 -8.907023,5.09311 1.650698,-0.93644 3.14099,-2.09769 4.619593,-3.27802 1.761204,-1.2345 3.259206,-2.75194 4.466328,-4.52485 1.187431,-1.91529 2.361123,-3.84532 3.659965,-5.687849 1.308219,-1.488475 2.590615,-3.020698 4.043691,-4.371859 1.633236,-1.295151 3.305889,-2.539587 4.971499,-3.792622 1.823435,-1.193255 3.663046,-2.347664 5.434116,-3.620442 1.745716,-1.226116 3.488359,-2.457945 5.169466,-3.77177 1.512319,-1.25199 3.200871,-2.256319 4.798883,-3.388675 1.664778,-1.265055 3.337498,-2.511258 4.926228,-3.871873 1.17994,-1.053737 0.57765,-0.523105 1.80752,-1.591164 0,0 10.28196,-4.157919 10.28196,-4.157919 v 0 c -1.24325,1.020164 -0.64228,0.496641 -1.80447,1.568796 -1.55855,1.393577 -3.17851,2.691757 -4.85263,3.939059 -1.55863,1.208987 -3.26414,2.183 -4.8447,3.361449 -1.64926,1.358111 -3.38451,2.597608 -5.122618,3.837964 -1.81224,1.207034 -3.496908,2.611744 -5.466969,3.576407 -1.6358,1.272114 -3.305289,2.496465 -4.959281,3.743338 -1.600973,1.166545 -2.724317,2.77739 -4.140737,4.14714 -1.462125,1.701932 -2.531457,3.724241 -3.747601,5.602481 -1.092615,1.898299 -2.473952,3.592349 -4.269568,4.878289 -1.527006,1.10381 -2.87519,2.45933 -4.553447,3.352 -3.42055,1.98488 -6.819239,4.00791 -10.261645,5.95464 -0.800741,0.45283 -1.461815,0.2807 -1.972099,-0.49735 -0.436951,-0.66623 -0.277082,-0.63328 0.105646,-1.04199 1.538094,-1.0005 3.032567,-2.00271 4.339278,-3.31584 1.426691,-1.2189 2.712167,-2.5592 3.63284,-4.21561 1.006732,-1.86516 1.904108,-3.80755 3.290747,-5.436457 1.130692,-1.571639 2.13814,-3.217768 3.536688,-4.573363 0.795584,-0.638582 0.261877,-0.401312 1.353529,1.112761 3.367625,-1.319559 6.243804,-3.652951 9.376587,-5.460656 0.790372,-0.456065 -3.113556,1.87606 -2.267884,1.53325 -2.039458,1.349094 -4.23895,2.474457 -6.067464,4.123065 -1.502757,1.445628 -2.713109,2.947408 -3.813376,4.7242 -1.104167,1.73654 -1.743586,3.66942 -2.80669,5.42259 -0.833051,1.60005 -1.378923,3.31514 -2.110277,4.96204 -0.649703,1.85567 -1.527103,3.62293 -2.304854,5.42729 -0.540271,2.00462 -0.972484,4.03033 -1.491366,6.0415 -0.231664,0.69287 -0.41561,1.34789 -0.770062,1.99301 -2.250043,4.0952 -8.181668,8.59694 -12.434329,6.10615 -1.149226,-1.41578 -1.423032,-3.20246 -1.386446,-4.99469 -0.0047,-1.90083 -0.03505,-3.80222 0.03085,-5.70244 0.08178,-1.91646 0.255066,-3.88126 1.109482,-5.62904 1.053822,-1.8927 2.292631,-3.6991 3.761888,-5.29435 1.517756,-1.57841 3.264022,-2.97235 5.055582,-4.21878 1.98247,-1.22586 3.571777,-2.94044 5.51471,-4.22621 2.265037,-1.517433 4.434232,-3.177733 6.813973,-4.523978 3.537371,-2.06696 7.070717,-4.140825 10.612115,-6.200879 1.129051,-0.656772 2.284346,-1.195059 3.470547,-1.735322 0.391793,-0.178446 1.537846,-0.77111 1.169094,-0.548926 -2.718943,1.638242 -5.483178,3.200112 -8.224766,4.800169 3.559347,-2.058461 7.116675,-4.12042 10.678043,-6.175386 0.808334,-0.466423 1.621711,-0.924054 2.433479,-1.384472 0.375856,-0.213177 1.503561,-0.852379 1.130104,-0.635032 -7.703396,4.483333 -11.344015,6.511494 -7.431439,4.324795 0.826905,-0.492413 1.579533,-1.122312 2.397434,-1.609445 3.935318,-2.343835 7.815144,-4.880268 11.980982,-6.826758 3.71937,-1.922679 1.7596,-0.926372 -7.837816,4.598194 -0.299318,0.172297 0.583608,-0.369676 0.880856,-0.545518 0.293667,-0.173728 0.59435,-0.335317 0.891524,-0.502975 0.280268,-0.184904 0.552503,-0.382601 0.840804,-0.554712 0.257955,-0.153996 0.530738,-0.281668 0.79611,-0.422503 1.868493,-1.229852 3.679888,-2.519138 5.277772,-4.100121 1.85718,-1.614067 3.73081,-3.205649 5.38957,-5.030345 0.3103,-0.319376 0.53793,-0.764257 0.94543,-0.943774 18.26908,-8.048099 12.53636,-6.236378 9.12764,-3.436184 -1.76888,1.602269 -3.91527,2.684865 -5.86007,4.056867 -1.8958,1.158295 -3.68589,2.461371 -5.38156,3.897611 -1.91706,1.441207 -3.92225,2.76596 -5.54934,4.552818 -1.558738,1.4014 -3.173604,2.750595 -5.022251,3.760086 -1.883756,1.059866 -3.557106,2.417146 -5.166841,3.853641 -1.606013,1.295826 -3.243059,2.559571 -4.925679,3.752611 -4.747085,2.953928 -9.389666,6.200683 -14.695308,8.027968 -1.645173,0.78071 -3.28001,1.59339 -4.995963,2.21102 -1.814488,0.62143 -3.729222,0.9241 -5.458415,1.78009 -3.705121,1.91315 -2.621825,1.37424 7.811561,-4.66862 0.269269,-0.15595 -0.523245,0.33891 -0.76599,0.5336 -0.816604,0.65495 -1.547,1.43584 -2.145117,2.29271 -1.325086,1.98332 -2.29227,4.10911 -2.687322,6.48153 -0.572718,1.9756 -1.075032,3.97556 -1.849575,5.88677 -0.747496,1.79128 -1.612117,3.47833 -0.982965,5.45833 0.98339,2.07554 2.291967,3.17542 4.337773,4.19973 1.907987,1.15272 3.678684,2.48846 5.417351,3.88068 1.667952,1.04033 3.267893,2.18763 4.973188,3.16518 1.855348,0.90016 3.77041,1.67613 5.659959,2.50112 1.82821,0.6802 3.604754,1.02094 5.571574,0.84232 1.88976,0.002 3.77951,-0.006 5.669262,-0.01 0.801475,-0.007 1.602912,-0.0109 2.404414,-0.0125 0.213704,-5.3e-4 0.805156,-0.13721 0.641112,-2.5e-4 -8.134194,6.79132 -5.05333,7.27368 -8.768279,6.65142 -1.579636,0.0195 -3.162429,0.15633 -4.7143,0.45606 -8.242245,1.80892 10.739889,-1.69263 6.647232,-5.7911 1.451883,0.40808 2.976536,0.27172 4.460037,0.47793 1.65472,0.22115 3.305288,0.58102 4.98453,0.46653 2.093447,-0.0632 4.185612,-0.19586 6.257222,-0.51903 2.27616,-0.36022 4.55332,-0.70552 6.85079,-0.90411 1.92365,-0.10737 3.85092,-0.0424 5.77706,-0.0634 1.82625,-0.001 3.65245,-0.0152 5.47872,-0.0141 1.65589,-0.001 3.31607,0.0172 4.96247,0.21394 1.79776,0.25555 3.55021,0.66875 5.18084,1.49732 1.63276,0.73997 3.34003,1.55324 4.5118,2.94615 1.08234,1.89672 0.90502,3.53473 0.82622,5.64558 -0.0975,1.74325 -0.19929,3.51594 -0.8495,5.15745 -0.62983,1.51639 -1.10945,3.06781 -1.78669,4.55807 -1.00849,1.50441 -2.28092,2.75668 -3.57243,4.01739 -1.29018,1.5165 -2.18231,3.37187 -2.98971,5.1794 -0.87988,2.00094 -1.27419,4.10308 -1.79423,6.21648 -0.43132,2.18038 -1.03239,4.373 -2.03765,6.35782 -3.35753,2.02132 -6.54574,4.35513 -10.07259,6.06395 -0.35154,0.17033 -0.65782,-0.44238 -0.90417,-0.74553 -0.46443,-0.57154 0.37783,-1.54906 0.69243,-1.89784 0.26622,-0.29513 0.58327,-0.5401 0.87491,-0.81015 1.77825,-1.59642 3.61748,-3.10675 5.53603,-4.52395 1.391,-1.79556 2.49851,-3.76665 3.85392,-5.57829 1.19897,-1.56183 2.44817,-3.08755 3.54093,-4.72702 1.10895,-1.42138 1.95647,-2.93441 2.55851,-4.63922 0.86082,-1.80552 1.16277,-3.75545 1.60823,-5.69085 0.60549,-2.02297 1.6554,-4.05313 1.24448,-6.20373 -0.38254,-1.75877 -1.03832,-3.31185 -2.44193,-4.51074 -1.4808,-1.15072 -3.12231,-1.97797 -5.04525,-1.95469 -1.89546,-0.003 -3.79092,0.003 -5.68639,-0.001 -1.88428,0.006 -3.76861,-0.003 -5.65291,0.001 -1.89556,-0.003 -3.79112,0.002 -5.68669,-0.004 -1.88434,0.004 -3.7687,-0.009 -5.65305,5.3e-4 -1.88999,0.008 -3.781787,0.0265 -5.66774,0.16187 -1.864656,0.1718 -3.708082,0.47665 -5.565092,0.70482 -1.687537,0.14223 -3.345955,0.4217 -4.951418,0.98096 -1.839981,0.49274 -3.697118,0.46902 -5.592352,0.4359 -1.874883,0.004 -3.749797,0.0242 -5.624629,0.005 -1.842868,-0.0336 -3.713628,-0.0642 -5.486657,-0.62951 -1.738595,-0.7196 -3.172846,-1.85132 -4.608107,-3.05286 -1.601362,-1.16968 -3.2101,-2.32909 -4.699844,-3.64248 -1.687595,-1.49927 -3.436739,-2.93309 -5.37023,-4.10917 -1.489231,-0.92137 -3.06942,-1.56152 -4.748381,-2.05721 -4.072009,-0.27737 0.387114,0.10449 9.024831,-5.38982 0.162457,-0.10334 -0.260739,-0.32516 -0.449593,-0.36263 -0.276193,-0.0548 -0.06406,0.5841 0.04543,0.84351 0.112475,0.26649 0.273469,0.50979 0.410203,0.76468 1.136358,1.43333 2.39291,2.62005 4.1383,3.28622 1.717066,0.7269 3.507938,1.18709 5.342189,1.52296 2.080207,0.34864 4.16121,0.63465 6.266817,0.78891 1.853875,0.13728 3.709808,0.0374 5.51303,-0.45221 1.650429,-0.47609 3.269155,-1.0535 5.021112,-0.92283 1.824418,-0.0573 3.645815,-0.17629 5.455039,-0.42794 1.980734,-0.2428 3.959521,-0.36495 5.956765,-0.29448 1.914142,-0.002 3.828217,-0.0174 5.742367,-0.0202 1.8245,-0.006 3.66727,-0.0392 5.47346,0.2506 1.77798,0.47558 2.91022,1.47611 1.58009,3.2382 -0.81162,0.79883 -0.7079,0.79166 -1.73153,1.39116 -4.42468,2.59137 -8.752947,5.42488 -13.457098,7.49997 -1.714172,0.74096 -3.469915,1.44931 -5.329206,1.72037 -1.862085,0.0894 -3.728146,0.0257 -5.5919,0.0459 -1.829586,-0.01 -3.662471,-0.004 -5.486278,-0.17103 -1.603687,-0.18477 -3.157691,-0.56296 -4.701561,-1.03258 -1.806879,-0.49184 -3.484499,-1.30641 -5.267137,-1.87038 -2.072296,-0.54989 -4.213815,-0.77722 -6.346836,-0.9587 -1.977768,-0.23275 -3.939029,-0.59865 -5.927489,-0.73411 -2.244421,-0.24135 -4.462616,-0.63564 -6.645413,-1.21916 0,0 9.245677,-6.33195 9.245677,-6.33195 z"
       inkscape:connector-curvature="0" />
    <path
       style="fill:#cccccc;stroke-width:0.26458332"
       id="path89"
       d="m 56.583434,214.73251 c 2.017995,-1.77114 3.931999,-3.65276 5.69799,-5.67533 1.578845,-1.90933 3.266371,-3.7254 4.812519,-5.66138 1.215292,-1.60089 2.802676,-2.82622 4.448328,-3.9507 4.689089,-2.98713 9.34144,-6.37905 14.840625,-7.48976 1.687729,-0.43266 3.273896,-0.84545 4.751959,-1.79063 1.551286,-0.83712 3.145782,-1.59574 4.800415,-2.20907 1.78127,-0.93282 3.652623,-1.67456 5.4517,-2.57392 0.31681,-0.16178 0.62953,-0.33185 0.95044,-0.48535 0.66974,-0.32036 2.62626,-1.38498 1.98186,-1.0163 -15.286934,8.74602 -9.805731,5.68149 -6.510946,3.6505 0.298143,-0.18149 0.591251,-0.37151 0.894429,-0.54446 3.465717,-1.97699 6.934837,-3.94807 10.411857,-5.90511 1.79009,-1.00755 -0.11497,0.12568 1.6587,-0.77272 0.29137,-0.14758 1.12789,-0.65925 0.84429,-0.49725 -2.8771,1.64342 -5.74989,3.29438 -8.62483,4.94157 1.65612,-1.14837 3.34591,-2.24386 5.03367,-3.34441 1.92656,-1.26111 3.67282,-2.7472 5.40411,-4.25724 1.76203,-1.58459 3.56559,-3.13639 5.15892,-4.89396 1.21259,-1.52045 1.72712,-3.39851 2.17585,-5.2551 0.0198,-0.1623 0.22719,-0.96029 -0.014,-1.22722 -0.13303,-0.14726 -0.61805,0.34684 -0.54914,0.31043 8.68135,-4.58716 12.198,-6.98987 8.61169,-4.56999 -1.44171,1.37742 -2.65549,2.96415 -3.80987,4.58302 -1.33801,1.90856 -2.63625,3.84938 -4.10563,5.66037 -1.48354,1.62856 -3.15126,3.06611 -4.63903,4.69104 -1.31361,1.55471 -2.68149,3.04988 -4.35001,4.22647 -24.445881,14.11575 -4.14792,2.39044 -1.49799,0.87699 0.51833,-0.29603 -0.99207,0.66572 -1.50886,0.96445 -9.240842,5.34165 -6.91473,4.08582 -11.063856,6.30965 -1.64773,0.65998 -3.352035,1.09039 -4.980506,1.81574 -1.929971,1.07718 -4.065376,1.6972 -6.068941,2.61848 -0.29505,0.11951 -0.586377,0.24866 -0.88515,0.35853 -0.931841,0.34266 -0.775663,0.19381 -1.657289,0.62398 -0.260694,0.1272 -1.013638,0.56456 -0.76204,0.4202 9.593813,-5.50466 11.623066,-6.75004 7.920538,-4.49741 -2.008886,1.12764 -3.809072,2.56911 -5.729214,3.8301 -5.679794,3.39661 -22.26764,12.6528 -3.218727,1.81918 0.543681,-0.3092 -1.047766,0.68401 -1.557134,1.04697 -1.331754,1.03144 -2.603124,2.14958 -3.747606,3.38712 -0.103423,-0.19967 -0.252653,-0.39922 -0.08452,-0.65466 0.108571,-0.16495 1.524883,-0.89125 1.720474,-1.01588 -2.921058,1.67158 -5.842116,3.34317 -8.763175,5.01476 1.628947,-1.14225 3.166928,-2.40975 4.753081,-3.6114 4.566253,-3.14018 9.324763,-6.13272 14.466515,-8.22004 1.745416,-0.49188 3.286722,-1.47054 4.914595,-2.23796 1.818521,-0.61805 3.637031,-1.25073 5.417365,-1.97174 1.86611,-1.12032 3.84132,-1.96885 5.92842,-2.58636 2.08942,-0.64231 4.26868,-0.99624 6.29469,-1.82529 2.18736,-0.75949 4.26215,-1.78307 6.34164,-2.79256 4.64086,-2.61796 -4.98922,2.8936 -7.50164,4.30908 -0.32276,0.18184 0.62933,-0.39179 0.93169,-0.60583 0.40935,-0.28976 0.67268,-0.5929 1.03592,-0.91004 0.004,0.2446 0.0458,0.38907 -0.17449,0.59825 -0.71413,0.67806 -2.20094,1.29361 -3.07666,1.73369 -0.78077,0.33349 -1.18804,0.48786 -1.93609,0.88421 -0.30464,0.16141 -1.1961,0.68639 -0.89697,0.51497 2.88249,-1.65179 5.75955,-3.3131 8.64705,-4.9561 0.28406,-0.16163 -0.55289,0.349 -0.83631,0.51175 -3.44996,1.98105 -6.90897,3.94629 -10.36345,5.91944 -1.88469,0.78968 -3.88048,1.37201 -5.867691,1.86244 -1.776163,0.19263 -3.419292,0.79857 -5.049004,1.50092 -1.789522,0.71971 -3.698861,1.00415 -5.503073,1.68559 -0.322266,0.0932 -0.648783,0.17288 -0.966793,0.27974 -0.668989,0.22479 -1.245756,0.47665 -1.86499,0.8156 -0.30071,0.1646 -1.178303,0.7012 -0.880303,0.53174 8.495929,-4.83124 11.479683,-6.76892 7.80783,-4.40927 -2.083117,1.36302 -4.051948,2.89429 -6.055325,4.37096 -0.392475,0.3025 -0.78495,0.60501 -1.177425,0.90752 0,0 -10.248342,4.10011 -10.248342,4.10011 v 0 c 0.388885,-0.3091 0.777772,-0.6182 1.166659,-0.92729 1.958446,-1.4971 3.953703,-2.95073 5.933051,-4.41737 4.842828,-3.02297 9.575771,-6.45259 15.084346,-8.09441 1.830265,-0.55211 3.70774,-0.9624 5.46631,-1.73022 1.67945,-0.61483 3.36823,-1.08939 5.13222,-1.3968 1.94914,-0.55308 3.9299,-1.09012 5.72079,-2.05973 -2.90963,1.68983 -5.81871,3.3806 -8.7289,5.06947 -0.28456,0.16514 0.56759,-0.3329 0.85201,-0.49827 3.46649,-2.01558 6.9245,-4.04585 10.40073,-6.0446 0.91202,-0.52439 1.9114,-0.87841 2.83616,-1.37774 0.91791,-0.48949 2.35346,-1.59865 3.47876,-1.43449 0.63998,0.0934 0.77862,0.4746 1.12949,0.935 0.0394,0.21916 0.13988,0.43587 0.11809,0.65747 -0.0856,0.86975 -1.0954,1.5886 -1.75494,1.97879 -9.32297,5.51553 -7.02481,4.33001 -11.53734,6.6079 -2.1151,0.97951 -4.21199,2.00196 -6.43273,2.72891 -2.07812,0.65801 -4.216824,1.11188 -6.292578,1.78324 -2.044401,0.74484 -3.954103,1.73214 -5.920555,2.65046 -1.80313,0.66195 -3.616486,1.30881 -5.380974,2.06715 -1.605571,0.81713 -3.232825,1.58027 -4.931971,2.18518 -3.599095,1.66109 -8.300648,4.59504 6.956206,-4.24597 2.279462,-1.32089 -4.579017,2.51099 -2.314097,1.45908 -1.657365,1.10715 -3.180643,2.40728 -4.732176,3.65501 -3.44353,2.0105 -6.871147,4.04851 -10.330592,6.0315 -0.531715,0.30478 -1.601923,0.76876 -2.240148,0.48589 -0.699571,-0.31006 -0.692732,-0.56134 -0.931378,-1.14856 0.424384,-1.57651 2.525453,-2.76951 3.633621,-3.92592 3.664481,-2.9546 7.276676,-4.51057 11.832359,-7.12962 0.26053,-0.14978 1.056365,-0.57317 0.797047,-0.42131 -2.90404,1.70068 -5.820317,3.38037 -8.731874,5.06813 -0.283644,0.16442 0.565406,-0.33206 0.848111,-0.49808 2.015781,-1.1158 3.717375,-2.68857 5.733089,-3.81185 4.635752,-2.99198 9.312855,-5.95499 14.498963,-7.84193 2.037104,-0.83074 4.093797,-1.61413 6.066097,-2.59418 1.65379,-0.63916 3.38754,-1.07782 4.95198,-1.9276 3.74811,-1.97037 1.16742,-0.62744 -8.04465,4.71929 -0.516458,0.29975 0.987137,-0.6738 1.501701,-0.9768 3.419329,-2.01342 6.874389,-3.96566 10.297239,-5.97309 2.92412,-1.71493 -5.86733,3.39705 -8.80101,5.09558 1.82279,-0.92407 3.23691,-2.36946 4.5248,-3.93867 1.45269,-1.65786 3.01992,-3.18248 4.63891,-4.67821 1.59249,-1.68008 2.8013,-3.6617 4.15213,-5.53357 1.10065,-1.68838 2.33305,-3.26764 3.65843,-4.78581 2.88885,-3.62992 1.1258,-1.58457 10.8253,-6.26926 0.73673,-0.35582 1.49703,1.26826 1.55084,1.69432 0.041,0.32421 -0.0261,0.65304 -0.0392,0.97957 -0.41938,1.98228 -0.91214,3.99957 -1.99448,5.73588 -1.42692,1.94396 -3.37846,3.42491 -5.11925,5.0788 -1.71847,1.51532 -3.38987,3.06851 -5.28927,4.35952 -1.65537,1.1676 -3.44562,2.13159 -5.03843,3.39085 -3.47418,2.02192 -6.93765,4.06237 -10.42255,6.06575 -0.17338,0.0997 -1.46622,0.71516 -1.69929,0.82944 -0.27826,0.13643 -1.09901,0.57219 -0.83211,0.41469 6.54253,-3.86083 11.85701,-6.81767 7.75529,-4.53004 -4.99609,3.21133 -10.120287,6.26277 -15.487457,8.81367 -1.836336,0.83944 -3.652425,1.72426 -5.505889,2.52356 -1.613263,0.69413 -3.195659,1.46049 -4.724739,2.32589 -1.571075,0.74404 -3.258291,1.11344 -4.93581,1.54741 -0.903401,0.24513 -1.77252,0.52022 -2.633255,0.89282 -0.296659,0.12842 -1.158391,0.57155 -0.880589,0.40625 6.746875,-4.01442 11.93537,-6.8145 7.913598,-4.63558 -1.633231,1.0804 -3.292581,2.14085 -4.589161,3.63648 -1.551803,1.97692 -3.250615,3.82019 -4.875782,5.73733 -1.726408,2.03697 -3.572121,3.92108 -5.480814,5.78486 0,0 -10.382517,4.19071 -10.382517,4.19071 z"
       inkscape:connector-curvature="0" />
    <path
       style="fill:#cccccc;stroke-width:0.26458332"
       id="path91"
       d="m 119.22134,67.371144 c 0.30475,-0.114779 0.61101,-0.225644 0.91426,-0.344336 0.81228,-0.317929 3.1488,-1.492967 2.39587,-1.052531 -15.10737,8.837231 -8.93624,5.508013 -5.97166,2.962121 1.72395,-1.806093 3.39928,-3.693559 4.58845,-5.900819 0.52859,-1.316461 1.24034,-3.091313 0.38243,-4.408236 0.17672,-0.666028 -1.82977,1.068345 -1.33704,0.806857 2.94803,-1.564529 5.76143,-3.375096 8.7149,-4.929336 0.3492,-0.183766 -0.59862,0.516208 -0.87112,0.801617 -0.27366,0.286617 -0.5093,0.607261 -0.76396,0.910894 -1.20251,1.5997 -1.72956,3.547128 -2.49885,5.366578 -0.67147,1.63536 -1.08371,3.358562 -1.54785,5.059563 -0.10639,0.298548 -0.21277,0.597099 -0.31916,0.895647 0,0 -10.12477,4.680627 -10.12477,4.680627 v 0 c 0.1208,-0.266827 0.24159,-0.533651 0.36239,-0.800478 0.54948,-1.706745 0.85668,-3.489323 1.49506,-5.170861 0.79552,-1.894263 1.42964,-3.859906 2.44162,-5.650267 3.1076,-4.450336 4.90159,-4.230904 11.81824,-8.158416 0.86098,-0.4889 1.73814,-0.04028 2.33572,0.575498 0.94838,1.719773 0.71056,3.621881 0.0577,5.422799 -1.07965,2.391791 -2.81445,4.331541 -4.52718,6.295771 -4.34115,4.628457 -10.49098,7.358959 -16.42412,9.473792 0,0 8.87911,-6.836484 8.87911,-6.836484 z"
       inkscape:connector-curvature="0" />
    <path
       style="fill:#cccccc;stroke-width:0.26458332"
       id="path93"
       d="m 82.768402,195.6971 c -2.197227,0.77772 -4.317235,1.82864 -6.308148,3.04091 16.534545,-10.24847 7.292054,-4.03759 3.622598,-1.42393 -1.865902,1.33398 -3.567837,2.87275 -5.232043,4.44569 -1.412298,1.26094 -2.901402,2.4084 -4.148984,3.84005 -0.945703,1.59939 -1.84191,3.24586 -2.686687,4.90516 -0.757389,1.48102 -1.374969,3.02964 -1.915608,4.60145 -0.58961,1.87885 -1.275297,3.70247 -2.089573,5.49509 -0.846233,2.03862 -1.843339,3.98431 -3.008005,5.85653 -0.286933,-0.0807 -0.520105,1.47417 -0.550627,1.47158 -0.08692,-0.007 -0.0127,-0.28184 -0.09179,-0.24506 -9.815965,4.56426 -11.493857,8.14308 -9.566185,4.33241 0.639006,-1.75766 0.66249,-3.64277 1.107419,-5.44746 0.516924,-1.81566 1.382101,-3.50036 2.025658,-5.27045 0.59918,-2.12781 1.706972,-3.99357 2.957176,-5.7913 1.241071,-1.9504 2.709394,-3.73078 4.336111,-5.36839 1.482942,-1.29624 2.963069,-2.60141 4.523078,-3.80495 1.605005,-1.12029 3.237929,-2.20342 4.871892,-3.28195 5.222579,-5.45975 8.380794,-4.86602 13.391695,-6.93494 0.652378,-0.26936 1.267759,-0.62115 1.909305,-0.91537 3.213769,-1.73748 -1.292844,0.67982 1.857928,-0.94908 0.293806,-0.15189 1.153985,-0.64694 0.867336,-0.48194 -2.89496,1.66638 -11.551259,6.71365 -8.692351,4.98614 8.817795,-5.32818 6.849242,-4.40619 11.167319,-6.35612 3.712826,-1.94213 1.70966,-0.90714 -8.015965,4.63832 -0.263874,0.15046 0.523507,-0.30864 0.777899,-0.47463 0.80038,-0.52223 1.537581,-1.12981 2.286031,-1.72184 4.342146,-3.65505 9.03223,-5.81079 14.173179,-8.68737 0.29481,-0.11543 0.58962,-0.23087 0.88444,-0.3463 0,0 -8.759472,6.89416 -8.759472,6.89416 v 0 c -0.292047,0.12222 -0.584091,0.24445 -0.876138,0.36667 16.55276,-9.68626 8.340381,-5.31536 4.935339,-2.35015 -1.017231,0.73291 -1.918161,1.68602 -3.003481,2.31974 -3.430442,2.00305 -6.88167,3.97037 -10.333906,5.93562 -0.254304,0.14477 -0.523065,0.26252 -0.784598,0.39378 -0.256688,0.13952 -1.022532,0.56559 -0.770067,0.41857 2.89945,-1.68854 11.617725,-6.7198 8.711316,-5.04328 -4.358743,2.51429 -8.579522,5.24414 -13.135969,7.37312 -4.031335,1.81636 -13.519179,5.19037 3.783962,-3.09249 -1.670299,1.00042 -3.206628,2.20392 -4.89054,3.18373 -1.575985,1.1793 -3.068187,2.44722 -4.578286,3.711 -1.731942,1.4698 -3.228959,3.24289 -4.451268,5.15499 -1.201478,1.73132 -2.507057,3.41161 -3.048402,5.49389 -0.576123,1.7875 -1.406843,3.46447 -2.049082,5.22436 -0.60938,1.78315 -0.58512,3.65396 -1.017812,5.47998 -1.214321,5.09662 -12.860729,9.98257 -10.139381,3.68549 1.138872,-1.86089 2.325706,-3.6744 3.107174,-5.73007 0.749065,-1.77806 1.541396,-3.49486 2.068253,-5.3554 0.476192,-1.63271 1.117317,-3.22906 1.871216,-4.75179 0.785164,-1.74931 1.911852,-3.3173 2.580489,-5.12504 1.125556,-1.59174 2.573647,-2.84095 4.129254,-4.00497 1.664311,-1.60998 3.352604,-3.2023 5.205378,-4.59705 4.868328,-3.59627 9.885037,-6.87854 15.316216,-9.64388 2.090224,-1.13532 4.26076,-2.10097 6.435751,-3.05964 0,0 -8.759047,7.00641 -8.759047,7.00641 z"
       inkscape:connector-curvature="0" />
    <path
       style="fill:#cccccc;stroke-width:0.26458332"
       id="path95"
       d="m 115.45402,130.41402 c 1.7193,0.0474 3.43455,-0.0292 5.1452,0.16083 0,0 -9.04591,6.45972 -9.04591,6.45972 v 0 c -1.72687,-0.089 -3.45568,-0.0516 -5.18414,-0.02 0,0 9.08485,-6.60053 9.08485,-6.60053 z"
       inkscape:connector-curvature="0" />
    <path
       style="fill:#cccccc;stroke-width:0.26458332"
       id="path97"
       d="m 103.30306,137.80901 c 2.11972,-0.25797 4.25138,-0.41291 6.38485,-0.49326 2.03763,-0.004 4.13036,0.20977 6.12564,0.64552 1.68243,0.4968 3.41052,0.9094 5.07382,1.47351 1.56532,0.88328 3.20981,1.61062 4.80481,2.43983 1.91709,1.07554 3.65245,2.39436 4.93227,4.18725 1.27816,1.60294 2.4194,3.24789 3.10612,5.18795 0.60479,1.85785 0.47189,3.76174 0.14187,5.65405 -0.4855,1.77937 -0.77546,3.59385 -1.07566,5.40988 -0.2151,1.97198 -1.11871,3.63865 -2.17851,5.2685 -0.93189,1.66023 -1.88375,3.28383 -3.08561,4.76414 -1.33351,1.52805 -2.74523,2.98973 -4.28837,4.30661 -4.50666,3.40434 -9.44641,6.4056 -14.97432,7.56126 -1.7698,0.28311 -3.49147,0.95112 -5.13225,1.66674 -1.46826,0.76172 -3.074,1.13619 -4.611605,1.70688 -3.928489,2.00259 2.313865,-1.1686 8.761055,-5.02242 0.0685,-0.041 -0.14576,-0.084 -0.18294,-0.15464 -0.139,-0.2641 -0.32811,-0.53181 -0.33535,-0.83017 -8e-4,-0.0352 0.5454,-0.25255 0.84589,-0.37698 3.33056,-1.86131 8.10514,-4.54047 -7.3608,4.21734 -0.276338,0.15649 0.53649,-0.33998 0.8045,-0.51033 1.05491,-0.67052 0.5772,-0.35759 1.61879,-1.06549 1.11691,-0.77626 2.13624,-1.67713 3.14639,-2.58431 0,0 10.29897,-4.21495 10.29897,-4.21495 v 0 c -0.99695,0.93671 -1.99801,1.87214 -3.0826,2.70839 -0.77874,0.57918 -1.55992,1.13144 -2.39843,1.62236 -3.17234,1.85729 -7.67971,5.28997 -11.927997,6.64498 -1.020466,0.13957 -1.333757,0.20263 -1.8781,-0.88735 -0.07246,-0.14509 -0.180496,-0.39863 -0.043,-0.48462 3.249507,-2.03212 6.629207,-3.84877 9.971527,-5.72432 0.17985,-0.10093 0.39036,-0.1332 0.58554,-0.1998 1.56327,-0.48217 3.05162,-1.1317 4.56693,-1.74443 1.70732,-0.61454 3.40576,-1.25402 5.21079,-1.52466 0.92583,-0.24942 1.83756,-0.526 2.73105,-0.87735 0.28554,-0.11229 1.10982,-0.51883 0.84691,-0.36065 -6.71176,4.03831 -11.83698,6.755 -7.79458,4.60073 1.56946,-1.25621 3.02074,-2.62533 4.36222,-4.12736 1.26061,-1.40644 2.34018,-2.9032 3.13785,-4.62619 0.99066,-1.54183 2.16534,-2.97203 2.36034,-4.87225 0.37214,-1.80929 0.47455,-3.67601 1.07935,-5.44072 0.41983,-1.6938 0.56359,-3.40832 0.0961,-5.11297 -0.58132,-1.85862 -1.68477,-3.39285 -2.8821,-4.91282 -1.2414,-1.60925 -2.87511,-2.80066 -4.67932,-3.72976 -1.57718,-0.76032 -3.12739,-1.58337 -4.7331,-2.272 -1.65441,-0.47411 -3.2861,-1.03999 -4.97325,-1.38423 -1.96432,-0.30997 -3.95985,-0.57491 -5.95149,-0.45084 -2.141089,0.11929 -4.288355,0.2602 -6.397629,0.6677 0,0 8.973399,-6.74875 8.973399,-6.74875 z"
       inkscape:connector-curvature="0" />
    <path
       style="fill:#cccccc;stroke-width:0.26458332"
       id="path99"
       d="m 98.160204,175.133 c 1.238202,1.69704 1.965586,3.60538 2.412216,5.63879 0.0543,0.33511 0.10854,0.67022 0.16281,1.00533 0,0 -9.849753,5.20206 -9.849753,5.20206 v 0 c -0.04213,-0.31738 -0.08426,-0.63476 -0.126394,-0.95215 -0.362524,-1.8728 -0.973381,-3.65921 -2.231604,-5.13673 0,0 9.632725,-5.7573 9.632725,-5.7573 z"
       inkscape:connector-curvature="0" />
    <path
       style="fill:#cccccc;stroke-width:0.26458332"
       id="path101"
       d="m 97.255406,188.38332 c 1.341781,-1.81956 3.088634,-3.18062 4.927004,-4.45511 1.83605,-1.2259 3.5143,-2.65807 5.14002,-4.14577 1.43086,-1.40474 3.05904,-2.66998 4.02316,-4.45976 0.32452,-0.78158 -0.40131,0.83208 0.34611,0.49963 13.07149,-5.81429 11.5304,-7.45014 8.18481,-3.6028 -1.27133,1.39823 -2.32908,2.96259 -3.64286,4.32251 -1.36103,1.36295 -2.81884,2.61268 -4.33055,3.80309 -4.74336,3.30862 -10.01529,5.78292 -14.991547,8.71998 -0.312465,0.16081 -0.618625,0.33451 -0.937392,0.48243 -0.393052,0.1824 -0.766339,0.45574 -1.196457,0.50825 -0.587102,0.0717 -0.756338,-1.04027 -0.70272,-1.6293 0.02058,-0.22601 0.39429,-0.22484 0.591434,-0.33727 2.102146,-1.32414 4.091654,-2.83029 6.040742,-4.36977 4.43782,-3.84437 9.63322,-6.69359 14.97295,-9.1293 1.76583,-0.63366 3.38032,-1.61156 5.00639,-2.53437 3.89868,-1.85062 11.29934,-6.24413 -5.28769,3.23489 0,0 10.39341,-4.06571 10.39341,-4.06571 v 0 c -4.58459,2.68174 -9.04756,5.44261 -13.76889,7.83066 -1.64037,0.91651 -3.31324,1.76787 -5.06016,2.46507 -3.95382,1.86245 -0.7721,0.39624 7.70891,-4.60611 0.30652,-0.18079 -0.64093,0.31326 -0.93994,0.50621 -0.62825,0.40541 -1.20779,0.88266 -1.79043,1.35127 -0.327,0.26301 -0.63707,0.5464 -0.9556,0.8196 -1.90417,1.5572 -3.89727,2.99191 -5.85888,4.47442 -0.17669,0.10658 -0.34978,0.42012 -0.53006,0.31974 -0.44995,-0.25052 -0.69142,-0.76497 -1.00428,-1.17404 -0.0288,-0.0376 -0.0396,-0.1128 -0.002,-0.14213 0.30514,-0.24052 0.7114,-0.31432 1.05458,-0.4965 0.30512,-0.16197 0.60425,-0.335 0.90637,-0.5025 0.0678,-0.038 1.86438,-1.04589 1.92951,-1.08204 0.32734,-0.18169 1.30747,-0.73003 0.98433,-0.54095 -15.492935,9.0651 -10.311129,5.91425 -6.90739,4.04452 1.49163,-1.19359 3.02346,-2.32557 4.36787,-3.69265 1.38587,-1.28438 2.48731,-2.75798 3.66257,-4.22942 3.5159,-4.11097 1.57296,-2.80681 11.41285,-7.16447 0.29708,-0.13157 0.44836,0.48918 0.57068,0.79018 0.0613,0.15092 -0.0347,0.32394 -0.0521,0.48592 -0.81169,2.01866 -2.32714,3.43259 -3.90797,4.8818 -1.61497,1.52899 -3.2638,3.0306 -5.09493,4.30119 -1.77557,1.22307 -3.66414,2.31554 -4.94175,4.10963 0,0 -10.319728,4.40898 -10.319728,4.40898 z"
       inkscape:connector-curvature="0" />
    <path
       style="fill:#cccccc;stroke-width:0.26458332"
       id="path103"
       d="m 64.981975,118.20315 c 1.781101,1.33918 2.930181,3.06284 3.642598,5.1452 0.498102,1.88545 0.487405,3.81342 1.176166,5.64974 0.905341,1.73728 2.859304,2.24506 4.639067,2.63076 0.97483,0.27538 2.014849,0.14586 3.000404,0.30492 1.134287,0.18306 2.273535,0.58646 3.396117,0.84127 2.03136,0.46077 4.107442,0.59875 6.182556,0.6675 1.890442,0.048 3.781499,0.0271 5.672275,0.0296 1.801085,0.14601 3.53432,-0.1412 5.29971,-0.4285 1.691947,-0.26653 3.408772,-0.29274 5.117622,-0.32977 1.88913,0.0516 3.74436,-0.0118 5.6117,-0.28387 1.87521,-0.30347 3.77443,-0.38754 5.66994,-0.45172 1.90599,-0.0367 3.81225,-0.0337 5.71846,-0.0326 1.9781,0.0758 3.92452,-0.0218 5.88629,-0.25042 2.09842,-0.28531 4.21096,-0.39719 6.32552,-0.46645 0.31468,-0.007 0.6294,-0.0128 0.94403,-0.0219 0.24322,-0.007 0.48641,-0.0157 0.72949,-0.0265 0.20031,-0.009 0.76337,-0.16805 0.59918,-0.053 -9.64365,6.76011 -5.7078,6.69284 -10.20928,6.63264 -1.75445,-0.0398 -3.5122,0.0813 -5.25405,-0.14897 -1.88475,-0.55503 -3.7804,-0.99785 -5.73336,-1.21352 -1.84672,-0.16713 -3.70273,-0.16939 -5.55536,-0.17197 -1.89956,-0.004 -3.79912,0.002 -5.69868,0.004 -1.84988,0.10909 -3.762319,0.28356 -5.568335,0.73284 -1.889803,0.4483 -3.816964,0.62742 -5.751235,0.72407 -1.880373,0.12716 -3.739666,0.48643 -5.621464,0.66354 -1.909347,0.13099 -3.823089,0.14537 -5.735939,0.15484 -1.879312,0.008 -3.758608,-1.7e-4 -5.637935,0.002 -1.832999,-0.01 -3.666032,-0.002 -5.499039,0.001 -2.32029,0.19176 -3.214328,-0.4434 -5.063204,-1.72637 -1.598923,-1.45116 -2.638931,-3.36622 -3.586877,-5.27758 -0.555218,-1.68621 -1.556862,-3.1485 -2.351405,-4.71845 -0.89085,-1.78504 -0.962546,-3.57431 -0.460047,-5.4707 0.440817,-1.30689 0.222266,-0.66104 0.655566,-1.93757 0,0 10.080704,-4.73113 10.080704,-4.73113 v 0 c -0.426736,1.28161 -0.204758,0.64345 -0.66598,1.91446 -0.632669,1.73344 -0.70004,2.98747 0.0943,4.70104 0.775679,1.58308 1.821545,3.03071 2.341875,4.73522 0.833387,1.74252 1.744612,3.52987 3.257799,4.7808 1.72929,1.07686 2.69943,1.30072 4.733366,1.16547 1.829541,0.005 3.659095,0.0133 5.488641,0.007 1.874163,0.006 3.748313,0.006 5.622465,-0.003 1.895631,-0.0212 3.794932,-0.0519 5.682228,-0.24607 1.87987,-0.21028 3.744685,-0.56613 5.638933,-0.62118 1.908803,-0.14459 3.800173,-0.42104 5.667073,-0.8508 1.88233,-0.29538 3.78297,-0.58972 5.69298,-0.55137 1.90473,-0.004 3.80945,-0.0105 5.71419,-0.004 1.87745,0.0238 3.76087,0.042 5.62533,0.28848 1.92861,0.28451 3.78566,0.84102 5.70121,1.18339 1.75119,0.0803 3.50385,0.0284 5.25639,0.0242 4.27107,-0.052 0.96439,-0.14128 -7.9902,6.63604 -0.0707,0.0536 -1.0406,-0.0261 -1.2029,-0.0232 -0.30963,0.006 -0.61911,0.0173 -0.92867,0.026 -2.09124,0.0849 -4.17633,0.25405 -6.25345,0.51496 -1.99142,0.20884 -3.98463,0.19545 -5.98545,0.1716 -1.90077,0.002 -3.80248,0.001 -5.7021,0.0745 -1.87519,0.0842 -3.74371,0.24154 -5.600653,0.52347 -1.894316,0.21242 -3.791931,0.15785 -5.695225,0.20625 -1.68743,0.0565 -3.374408,0.15409 -5.039786,0.45021 -1.786974,0.27014 -3.572499,0.32829 -5.379598,0.27345 -1.900322,0.008 -3.802052,0.006 -5.700961,-0.0733 -2.10875,-0.12218 -4.209328,-0.34126 -6.26409,-0.85542 -2.131962,-0.49579 -4.268983,-0.793 -6.424054,-1.15368 -2.105133,-0.59502 -4.207208,-1.43645 -5.219412,-3.52343 -0.73366,-1.85362 -0.866216,-3.75543 -1.200673,-5.70226 -0.585103,-1.88006 -1.614538,-3.41466 -3.323141,-4.46937 0,0 9.438378,-6.04329 9.438378,-6.04329 z"
       inkscape:connector-curvature="0" />
    <path
       style="fill:#cccccc;stroke-width:0.26458332"
       id="path105"
       d="m 101.75653,209.66546 c -0.0665,2.23164 -0.054,4.46528 -0.043,6.69771 -0.16332,2.18421 0.15014,4.26667 0.62292,6.38794 0.50884,2.02572 0.71371,4.10227 0.84169,6.18117 -0.0607,1.50431 -0.012,0.75406 -0.14587,2.25076 0,0 -9.952864,4.94969 -9.952864,4.94969 v 0 c 0.150312,-1.41347 0.08768,-0.71748 0.19013,-2.08777 -0.08241,-2.02852 -0.2452,-4.05571 -0.712881,-6.03757 -0.511989,-2.29748 -0.971917,-4.20759 -0.746418,-6.59824 0.01093,-2.21782 0.02416,-4.43691 -0.04298,-6.65391 0,0 9.989253,-5.08978 9.989253,-5.08978 z"
       inkscape:connector-curvature="0" />
    <path
       style="fill:#cccccc;stroke-width:0.26458332"
       id="path107"
       d="m 107.77257,206.46726 c 1.6737,-5.27336 8.2022,-10.12108 13.5143,-9.7369 1.93034,0.58284 3.14998,2.12691 4.23036,3.72983 0,0 -9.59858,5.6403 -9.59858,5.6403 v 0 c -0.87531,-1.25775 -1.92245,-2.72182 -3.6122,-2.72167 -3.9251,1.19896 -1.12103,0.4032 8.03343,-4.98507 0.28414,-0.16724 -0.57866,0.32622 -0.8258,0.54446 -0.80526,0.7111 -1.35987,1.67394 -1.65115,2.69534 0,0 -10.09036,4.83371 -10.09036,4.83371 z"
       inkscape:connector-curvature="0" />
    <path
       style="fill:#cccccc;stroke-width:0.26458332"
       id="path109"
       d="m 151.12994,210.61283 c 1.82312,1.80931 3.1028,4.05422 4.42327,6.23452 1.05593,1.81165 1.91277,3.71307 2.41897,5.74786 0.49519,1.83531 0.80843,3.68753 1.61342,5.41983 0.41692,0.75483 0.99788,1.34145 1.638,1.90171 0,0 -9.49665,5.86568 -9.49665,5.86568 v 0 c -0.70289,-0.69069 -1.36977,-1.39571 -1.83295,-2.27958 -0.85605,-1.79834 -1.24934,-3.69638 -1.73432,-5.6182 -0.42995,-1.93824 -1.24301,-3.74269 -2.19212,-5.48272 -1.25564,-2.12176 -2.48734,-4.31602 -4.39563,-5.93195 0,0 9.55801,-5.85715 9.55801,-5.85715 z"
       inkscape:connector-curvature="0" />
    <path
       style="fill:#cccccc;stroke-width:0.26458332"
       id="path111"
       d="m 166.02063,202.76731 c -0.0587,1.72935 -0.0551,3.46022 -0.0504,5.19036 0,0 -9.90473,5.04671 -9.90473,5.04671 v 0 c 0.005,-1.713 0.009,-3.42679 -0.0504,-5.13898 0,0 10.00555,-5.09809 10.00555,-5.09809 z"
       inkscape:connector-curvature="0" />
    <path
       style="fill:#cccccc;stroke-width:0.26458332"
       id="path113"
       d="m 178.11587,215.6185 c -0.0682,2.07629 -0.0556,4.15429 -0.0452,6.23138 -0.007,1.35322 0.002,2.70645 0.009,4.05966 0,0 -9.93261,5.06091 -9.93261,5.06091 v 0 c 0.007,-1.35616 0.0152,-2.71235 0.009,-4.06853 0.0103,-2.06173 0.0238,-4.12444 -0.0452,-6.18533 0,0 10.00555,-5.09809 10.00555,-5.09809 z"
       inkscape:connector-curvature="0" />
    <path
       style="fill:#cccccc;stroke-width:0.26458332"
       id="path115"
       d="m 56.433976,127.15117 c 1.555147,-1.75883 2.836878,-3.73219 4.122761,-5.69014 1.087813,-1.70007 1.494086,-3.6303 1.686595,-5.60663 0.0095,-2.08395 0.599773,-4.07375 1.323271,-6.00735 2.790433,-5.83499 9.193852,-7.74589 14.599935,-10.789178 2.395617,-0.524682 2.43458,1.653538 1.895311,3.306878 -0.87309,1.90828 -1.928344,3.70947 -3.165797,5.4016 -1.522582,2.07036 -3.186639,4.02838 -4.903783,5.9383 -1.187788,1.57977 -2.90985,2.67319 -4.130346,4.20889 -0.347536,0.65251 -0.226473,-0.77142 -0.241393,-0.76394 -13.838856,6.94084 -11.109338,7.11439 -7.885739,3.95973 1.738465,-1.72704 3.155825,-3.73215 4.755475,-5.58151 1.573609,-1.96996 3.161551,-3.91613 4.879655,-5.76353 1.542608,-1.62774 3.13563,-3.20659 4.72414,-4.78923 1.491038,-1.46992 2.928618,-2.99361 4.518226,-4.35849 1.574221,-1.271358 3.079515,-2.621974 4.552649,-4.008108 1.667179,-1.720971 3.648866,-3.076143 5.535572,-4.536874 1.739443,-1.300485 3.285935,-2.800373 4.710623,-4.432228 0.866244,-0.974164 1.710336,-1.963709 2.509975,-2.993171 0,0 10.240964,-4.400991 10.240964,-4.400991 v 0 c -0.79425,1.051742 -1.58232,2.100037 -2.49326,3.056469 -1.43198,1.680387 -2.88474,3.323979 -4.67088,4.647803 -1.848604,1.4746 -3.856791,2.760234 -5.541555,4.425648 -1.459399,1.406102 -2.933919,2.799676 -4.513598,4.071655 -1.628826,1.317344 -3.117845,2.767531 -4.573765,4.275207 -1.593308,1.58365 -3.192399,3.16172 -4.762373,4.76861 -1.751819,1.82177 -3.432003,3.69345 -4.917612,5.74006 -1.636321,1.80504 -3.028566,3.79189 -4.660881,5.59796 -3.44415,3.72641 -3.376504,3.10947 -11.340486,7.18935 -0.414597,0.2124 -1.04317,-0.86222 -1.094836,-1.017 -0.05732,-0.1717 0.0172,-0.36162 0.0258,-0.54243 0.875948,-1.9017 2.908258,-2.81294 4.151257,-4.46538 1.728698,-1.86278 3.431802,-3.75956 4.906632,-5.8337 1.270497,-1.5903 2.3514,-3.2798 3.22661,-5.12061 0.563028,-1.01947 1.286372,-1.87614 -0.444418,-1.07546 2.83397,-1.67304 5.665596,-3.35005 8.501909,-5.01912 0.343505,-0.20214 -0.692272,0.39652 -1.023433,0.61831 -1.380352,0.92446 -2.518076,2.14107 -3.281896,3.62181 -0.780654,1.79796 -1.412767,3.71784 -1.443088,5.69415 -0.147,2.12243 -0.46599,4.20935 -1.488713,6.11312 -1.236324,1.97015 -2.544744,3.91341 -3.969766,5.75054 0,0 -10.319731,4.40898 -10.319731,4.40898 z"
       inkscape:connector-curvature="0" />
    <path
       style="fill:#cccccc;stroke-width:0.26458332"
       id="path117"
       d="m 131.74938,145.67608 c -1.22383,2.37094 -2.48627,4.72567 -3.61339,7.14516 -0.98474,2.19363 -1.8468,4.45194 -2.45182,6.7807 -0.20527,1.99375 -0.98116,3.78561 -1.77619,5.59486 -0.66821,1.84337 -1.30984,3.66491 -2.28513,5.37118 -1.32473,2.17538 -2.98161,4.08944 -4.86043,5.79753 -4.81866,4.27117 -10.71902,7.08678 -16.24828,10.2773 -0.5059,0.27698 -4.058935,2.26332 -4.31824,1.92714 -0.24956,-0.32355 -0.35623,-0.73549 -0.534344,-1.10324 0.06294,-0.19217 0.0843,-0.4034 0.188819,-0.5765 0.155779,-0.258 1.081109,-1.19482 1.240118,-1.35749 0.876184,-0.89636 1.773532,-1.77213 2.663338,-2.65488 1.674099,-1.67741 3.290469,-3.40288 5.221999,-4.78698 1.72484,-1.1983 3.44274,-2.40779 5.09952,-3.69905 1.55169,-1.2929 3.13714,-2.5476 4.78973,-3.70933 1.68315,-1.04688 2.61111,-2.57907 3.40044,-4.33996 0.76595,-1.89716 1.15637,-3.90074 1.88271,-5.81242 0.66938,-1.55591 0.92261,-3.20586 1.05065,-4.8803 0.1838,-1.66248 -0.17236,-3.18504 -0.97346,-4.63093 -0.35863,-0.53397 -0.82084,-1.33752 -1.56251,-1.41531 -0.2577,-0.027 -0.81226,0.636 -0.58447,0.51249 3.14598,-1.70577 6.20965,-3.55918 9.31448,-5.33877 -0.70558,0.88756 0.0371,2.46375 0.35244,3.42163 0.59969,1.61336 0.92441,3.30704 1.44683,4.94417 0.11732,0.27678 0.21841,0.56101 0.35195,0.83034 0.0668,0.13478 0.41445,0.80104 0.66335,0.91119 0.0554,0.0245 0.20639,-0.12656 0.15265,-0.0986 -9.74189,5.06689 -12.54918,7.36504 -9.44179,4.85327 0.41061,-1.49693 0.41161,-3.1079 0.30486,-4.64837 -0.1401,-1.90758 -0.71811,-3.70003 -1.66581,-5.34971 -0.95479,-1.71735 -2.26037,-3.37326 -4.21825,-3.93198 -0.71273,0.14528 -0.4199,-0.0271 -0.88923,0.49847 3.08427,-1.75174 6.15124,-3.53427 9.25279,-5.25523 0.11004,-0.061 -0.2103,0.15533 -0.26546,0.26843 -0.14318,0.29357 -0.10879,0.82383 -0.11243,1.1164 0.27274,1.65314 0.97574,3.25114 1.92822,4.62371 0,0 -9.61258,5.64226 -9.61258,5.64226 v 0 c -1.04022,-1.56826 -1.83283,-3.31399 -2.27948,-5.14469 -0.0214,-0.27872 -0.28865,-2.01419 -0.0309,-2.18759 4.10371,-2.76122 6.9384,-7.07402 11.29987,-5.7656 1.97779,1.05669 3.50799,2.58496 4.57662,4.56657 1.02739,1.78171 1.69167,3.70458 1.90816,5.76058 0.19601,1.66749 0.10398,3.35608 -0.0167,5.02844 -0.33169,7.5855 -10.13865,9.46446 -11.67457,3.65706 -0.54834,-1.62236 -0.88973,-3.30207 -1.46329,-4.91584 -0.5121,-1.42 -0.98945,-2.90391 -0.92221,-4.42901 5.59629,-3.40775 9.15306,-9.25503 12.85829,-3.72138 0.91116,1.60941 1.4461,3.32294 1.27926,5.19699 -0.0981,1.76489 -0.22911,3.53391 -0.90863,5.18978 -0.76548,1.92375 -1.30416,3.88223 -1.91126,5.86068 -0.74214,1.8695 -1.42746,3.66688 -3.11668,4.89813 -1.66264,1.15442 -3.32201,2.32228 -4.84942,3.65469 -1.62286,1.33487 -3.32954,2.55361 -5.04472,3.76558 -1.99938,1.3135 -3.75092,2.85174 -5.3651,4.62788 -0.87019,0.86732 -1.73975,1.73534 -2.60321,2.60937 -0.39487,0.3997 -0.73317,0.86573 -1.18761,1.19613 -0.0972,0.0706 -0.22821,0.0751 -0.34232,0.11268 -0.20438,-0.25342 -0.45493,-0.47574 -0.61315,-0.76028 -0.0508,-0.0914 0.19892,-0.17925 0.63054,-0.39399 1.094,-0.54431 2.18527,-1.09547 3.24471,-1.70536 -16.526401,9.63422 -5.93715,3.84114 -2.63094,0.84017 1.91574,-1.60551 3.64907,-3.35482 4.99067,-5.48326 1.05467,-1.62525 1.74442,-3.34901 2.30091,-5.20169 0.73649,-1.78901 1.78465,-3.45016 1.89501,-5.44071 0.51491,-2.41651 1.45808,-4.71753 2.39565,-6.99568 1.08889,-2.43243 2.45368,-4.72564 3.46729,-7.19018 0,0 10.22215,-4.55665 10.22215,-4.55665 z"
       inkscape:connector-curvature="0" />
    <path
       style="fill:#cccccc;stroke-width:0.26458332"
       id="path119"
       d="m 72.934363,118.26417 c -0.799179,2.24051 -1.083677,4.61016 -1.281784,6.96691 0.103023,1.45291 -0.485058,3.50645 -0.0929,4.90897 -11.774763,6.63487 -10.017898,7.47096 -10.006748,0.77333 -0.09959,-2.09687 0.394824,-4.12768 0.846349,-6.15536 0.623869,-2.077 1.01378,-4.20553 1.641232,-6.2807 0.69284,-2.22379 1.343731,-4.46209 2.116634,-6.65989 0.624391,-2.00371 1.531306,-3.89247 2.459054,-5.76839 0.557321,-1.09479 0.28358,-0.55669 0.821253,-1.61427 0,0 10.165196,-4.605157 10.165196,-4.605157 v 0 c -0.521943,1.087877 -0.244226,0.549677 -0.833958,1.614167 -0.899517,1.86884 -1.967619,3.67391 -2.530729,5.68563 -0.864174,2.15513 -1.45619,4.40024 -2.160715,6.60999 -0.04246,0.13236 -0.663358,2.05745 -0.69969,2.21193 -0.311341,1.32379 -0.373954,2.70952 -0.949005,3.97009 -0.434562,1.95465 -1.03895,3.90638 -0.940446,5.93159 -0.0093,7.16864 1.390412,3.48006 -10.020239,9.39514 0.449903,-1.60878 -0.08974,-3.43496 0.267372,-5.06661 0.195803,-2.40456 0.444209,-4.80159 1.040128,-7.14633 0,0 10.158999,-4.77104 10.158999,-4.77104 z"
       inkscape:connector-curvature="0" />
    <path
       style="fill:#cccccc;stroke-width:0.26458332"
       id="path121"
       d="m 125.1992,149.85065 c 0.0637,2.43146 -0.65465,4.73095 -1.42217,7.00524 -0.7326,2.1995 -1.5493,4.37272 -2.60768,6.43697 -0.95278,1.76201 -1.97486,3.4815 -2.80494,5.30613 -1.02972,1.91502 -1.56599,3.99468 -2.07497,6.08877 0.0317,0.71664 -1.47526,3.64812 -1.221,4.02343 0.46141,-4.29601 1.00003,-0.95326 -9.07658,4.41943 -0.22165,0.11818 0.31082,-0.3965 0.43871,-0.61269 0.32472,-0.54891 0.59084,-1.23901 0.83625,-1.82061 0.76765,-2.20579 1.79039,-4.30662 2.72802,-6.44234 0.79842,-1.76911 2.01028,-3.298 3.07526,-4.90797 0.94556,-1.38953 1.67089,-2.90761 2.24503,-4.48317 0.52015,-1.72486 0.60454,-3.5304 0.6585,-5.31858 -0.018,-1.6838 0.31071,-3.45981 -0.51676,-4.9971 -0.29922,-0.28534 -0.38185,-0.49609 -0.83353,-0.46206 -0.32185,0.0242 -1.11025,0.65834 -0.8271,0.50344 9.07838,-4.96614 11.54906,-7.65706 8.66278,-4.62581 -0.46611,0.83189 -0.28612,0.40108 -0.54854,1.28881 0,0 -10.04976,4.89919 -10.04976,4.89919 v 0 c 0.1078,-1.17184 -0.0126,-0.60803 0.35022,-1.69369 1.9594,-4.27136 0.33788,-1.10836 10.44999,-6.75079 0.80168,-0.44733 2.12096,0.72281 2.50884,1.28679 0.89266,1.74106 0.82732,3.59811 0.75208,5.51566 -0.0434,1.87181 -0.0799,3.75603 -0.5153,5.58757 -0.43591,1.68051 -1.19067,3.28988 -2.12728,4.74971 -0.98178,1.64488 -2.23384,3.10387 -3.15833,4.78294 -0.99097,2.09284 -2.00183,4.19293 -2.76949,6.37791 -0.0708,0.21254 -0.90991,2.65702 -1.03127,2.7401 -2.39477,1.63938 -7.652,8.73154 -11.04953,5.5054 -0.10029,-0.22537 -0.26323,-0.43233 -0.30087,-0.67613 -0.22589,-1.4631 1.19854,-2.6609 1.26387,-4.08687 0.59633,-2.10831 0.93087,-4.31258 2.02469,-6.2519 0.77505,-1.88311 1.73082,-3.6486 2.7687,-5.40134 1.15292,-1.97934 1.96431,-4.12531 2.71691,-6.28419 0.75719,-2.12288 1.62772,-4.31044 1.4497,-6.60417 0,0 10.00555,-5.09808 10.00555,-5.09808 z"
       inkscape:connector-curvature="0" />
  </g>
</svg>
